<svg xmlns="http://www.w3.org/2000/svg" width="988" height="250" viewBox="0 0 988 250">
<g>
<path d="M 434.97 212.01 C433.93,212.18 432.15,213.27 430.50,215.00 L 433.37 212.00 L 430.94 211.97 L 428.50 211.93 L 430.86 209.97 C432.23,208.82 432.73,208.20 432.55,208.08 C432.82,208.03 433.09,208.00 433.35,208.00 C434.19,208.00 435.16,207.55 435.50,207.00 C435.84,206.45 438.31,206.00 440.98,206.00 C444.52,206.00 445.94,206.36 447.93,208.13 C445.77,206.50 443.90,206.90 440.12,209.24 C438.13,210.47 436.39,211.37 436.25,211.24 C436.11,211.11 435.44,211.01 434.75,211.02 C433.78,211.03 433.77,211.20 434.72,211.80 C434.81,211.86 434.89,211.93 434.97,212.01 ZM 716.84 217.42 C716.98,217.16 717.16,216.89 717.35,216.58 C718.29,215.16 718.58,213.86 718.03,213.52 C717.51,213.20 717.33,212.16 717.62,211.22 C717.91,210.27 716.77,211.06 715.08,212.96 C714.30,213.84 713.68,214.63 713.21,215.35 C714.72,212.87 717.23,210.00 718.30,209.98 C718.96,209.97 720.62,209.08 722.00,208.00 C724.81,205.80 727.55,205.52 729.62,207.15 C728.58,206.39 727.27,206.01 725.83,206.28 C723.69,206.69 723.72,206.74 726.19,206.86 C728.70,206.99 731.39,209.00 729.06,209.00 C728.48,209.00 728.00,209.87 728.00,210.94 C728.00,211.02 728.00,211.10 727.99,211.18 C727.92,210.24 727.30,210.09 725.75,210.58 C722.36,211.65 718.35,214.97 716.84,217.42 ZM 611.55 243.79 C609.82,241.77 609.76,241.00 610.85,234.65 C611.33,231.89 611.65,229.40 611.71,228.16 C611.69,228.87 611.55,230.11 611.33,232.00 C610.72,237.17 610.79,237.41 612.45,236.04 C614.10,234.67 614.19,234.93 613.85,240.29 C613.68,243.12 613.83,245.21 614.24,245.82 C613.63,245.94 612.77,245.21 611.55,243.79 ZM 619.06 212.25 C618.37,214.59 617.20,217.85 616.47,219.50 C614.22,224.53 614.74,219.42 617.14,212.83 C619.57,206.18 620.99,205.75 619.06,212.25 ZM 444.96 220.15 C446.67,218.52 447.86,216.97 448.50,215.57 C448.09,216.62 447.40,217.75 446.43,218.90 C445.01,220.58 444.15,222.44 444.51,223.02 C444.88,223.61 444.63,224.74 443.96,225.54 C443.30,226.34 442.08,227.00 441.26,227.00 C440.00,227.00 440.04,226.58 441.51,224.25 C442.47,222.74 442.66,222.06 441.93,222.75 C441.28,223.36 440.06,223.88 439.08,223.98 C440.49,223.69 442.62,222.38 444.96,220.15 ZM 722.25 224.27 C721.29,224.55 719.71,225.10 718.75,225.49 C716.75,226.32 716.42,224.98 718.20,223.20 C719.59,221.81 724.00,221.57 724.00,222.88 C724.00,223.37 723.21,223.99 722.25,224.27 ZM 598.15 232.64 C599.26,234.95 600.70,235.99 602.43,235.79 C601.37,235.95 600.38,235.73 599.59,235.07 C598.51,234.18 597.86,232.98 597.65,231.43 C597.77,231.81 597.94,232.20 598.15,232.64 ZM 727.19 215.97 C728.20,216.02 729.62,215.52 730.57,214.57 C730.98,214.16 731.28,213.72 731.49,213.25 C730.91,214.82 729.51,216.00 727.57,216.00 C727.44,216.00 727.31,215.99 727.19,215.97 ZM 435.10 215.06 C434.94,215.74 434.71,216.56 434.41,217.54 C433.59,220.21 432.90,222.91 432.38,225.38 C433.07,221.98 434.03,218.25 435.10,215.06 ZM 428.53 210.35 C429.49,209.43 430.63,208.68 431.75,208.29 C431.12,208.60 430.14,209.19 428.90,210.07 C428.77,210.16 428.65,210.25 428.53,210.35 ZM 439.65 215.10 C439.70,214.94 439.76,214.79 439.81,214.63 C440.52,212.55 441.16,211.13 441.86,210.25 C441.22,211.26 440.45,212.94 439.65,215.10 ZM 451.93 213.88 C452.62,216.78 451.28,219.82 447.87,223.52 C451.20,219.91 452.55,216.78 451.93,213.88 ZM 712.54 216.57 C712.05,217.67 712.01,218.61 712.40,219.47 C712.15,219.04 712.00,218.62 712.00,218.29 C712.00,217.86 712.20,217.26 712.54,216.57 ZM 615.11 244.53 C615.39,243.08 615.58,240.64 615.63,237.75 C615.58,241.06 615.44,243.28 615.11,244.53 ZM 607.64 232.32 C606.56,233.62 605.38,234.60 604.22,235.19 C605.28,234.62 606.43,233.66 607.64,232.32 ZM 598.42 225.21 C598.61,224.59 598.82,223.94 599.07,223.27 C599.57,221.88 600.02,220.63 600.41,219.50 C600.00,220.72 599.52,222.09 598.97,223.64 C598.76,224.21 598.58,224.73 598.42,225.21 ZM 446.56 209.85 C445.67,209.44 444.61,209.18 443.79,209.14 C444.55,209.08 445.45,209.34 446.56,209.85 ZM 437.96 223.95 C437.51,223.85 437.29,223.58 437.33,222.86 C437.35,223.43 437.57,223.79 437.96,223.95 ZM 727.00 213.50 C726.53,213.79 726.13,214.34 726.03,214.82 C726.06,214.38 726.37,213.89 727.00,213.50 ZM 721.19 220.94 C719.76,220.74 718.68,220.56 717.90,220.33 C718.77,220.55 719.96,220.77 721.19,220.94 ZM 602.58 212.03 C602.75,210.86 602.62,210.22 602.25,209.85 C602.62,210.22 602.76,210.83 602.58,212.03 Z" fill="rgba(0,0,0,1)"/>
<path d="M 300.36 198.50 C300.05,197.68 300.05,196.32 300.36,195.50 C300.87,194.17 333.70,194.00 587.47,194.00 L 874.00 194.00 L 874.00 200.00 L 587.47 200.00 C333.70,200.00 300.87,199.83 300.36,198.50 ZM 194.35 62.31 C188.91,56.92 178.86,48.04 174.34,44.95 C156.77,32.95 139.97,28.00 116.76,28.00 C100.12,28.00 91.03,29.98 75.40,37.00 C58.93,44.40 43.57,58.31 33.07,74.56 L 30.83 72.82 C28.84,71.28 28.72,70.87 30.00,70.01 C31.33,69.11 31.33,68.89 30.00,68.02 C27.71,66.51 26.61,66.78 24.01,70.88 C35.23,52.61 51.15,38.32 71.13,28.63 C80.40,24.13 85.31,22.52 99.00,19.45 C106.53,17.77 126.42,17.52 134.20,19.02 C146.29,21.34 150.55,22.37 151.45,23.16 C151.97,23.62 153.13,24.00 154.01,24.00 C157.26,24.00 174.50,32.78 183.50,39.02 C186.73,41.26 195.25,49.62 201.29,56.19 C200.48,55.58 199.95,55.63 199.38,56.10 C198.27,57.02 197.35,57.02 195.34,56.11 C193.91,55.46 192.57,55.10 192.36,55.30 C191.50,56.16 192.77,60.05 194.35,62.31 ZM 135.43 235.30 C135.30,236.13 135.45,236.65 135.72,236.86 C130.89,237.61 125.97,237.97 120.75,237.98 L 112.00 238.00 L 112.00 233.03 C112.02,233.45 112.15,233.94 112.36,234.49 C112.78,235.58 114.16,235.79 118.20,235.37 C125.08,234.66 130.17,233.08 129.44,231.90 C129.12,231.39 128.42,231.24 127.89,231.57 C127.35,231.90 126.34,231.70 125.65,231.12 C124.95,230.55 121.74,230.18 118.52,230.31 C113.97,230.50 112.09,231.12 112.00,232.77 L 112.00 228.00 L 121.25 228.00 C126.34,228.00 133.65,227.29 137.50,226.41 C141.35,225.54 145.74,224.59 147.26,224.30 C148.78,224.01 150.27,223.37 150.57,222.88 C150.87,222.40 151.76,222.00 152.53,222.00 C154.96,222.00 166.95,216.11 173.37,211.76 C188.42,201.55 202.03,185.92 208.57,171.33 C210.00,168.12 211.98,163.70 212.97,161.50 C211.98,163.70 210.01,168.10 208.59,171.28 C207.16,174.46 206.00,177.84 206.00,178.79 C206.00,179.75 205.10,182.21 204.00,184.26 C202.90,186.32 202.20,188.00 202.45,188.00 C203.32,188.00 212.00,173.93 212.00,172.53 C212.00,171.75 212.45,170.84 213.00,170.50 C213.55,170.16 214.00,169.07 214.00,168.08 C214.00,167.09 215.35,164.58 217.00,162.50 C218.65,160.42 220.00,158.02 220.00,157.16 C220.00,156.00 220.29,155.89 221.14,156.74 C222.46,158.06 224.10,156.71 225.27,153.66 C224.57,156.63 223.74,159.58 222.78,162.50 C213.42,191.02 191.84,214.95 163.79,227.94 C154.10,232.43 145.46,235.25 136.56,236.72 C136.85,236.48 137.15,236.05 137.39,235.42 C138.26,233.17 138.16,232.78 136.84,233.22 C136.20,233.43 135.56,234.37 135.43,235.30 ZM 70.20 88.53 C77.53,79.95 87.28,73.14 98.00,69.66 C114.22,64.40 134.24,66.21 149.00,74.28 C160.38,80.51 169.06,89.97 174.30,101.34 C172.54,97.72 170.42,94.30 169.08,93.23 C166.01,90.76 160.48,88.36 158.75,88.75 C157.67,89.00 157.00,88.56 157.00,87.61 C157.00,86.76 156.10,85.59 155.00,85.00 C153.90,84.41 153.00,83.05 153.00,81.96 C153.00,80.88 152.50,80.00 151.89,80.00 C151.28,80.00 151.04,80.65 151.34,81.45 C151.71,82.40 151.42,82.71 150.51,82.36 C149.74,82.07 148.98,80.67 148.81,79.24 C148.60,77.50 147.36,76.02 145.00,74.70 C140.10,71.96 130.80,69.01 129.55,69.79 C128.97,70.14 127.46,70.30 126.19,70.14 C124.92,69.98 120.70,70.41 116.81,71.10 C110.49,72.23 109.61,72.19 108.54,70.72 C107.45,69.23 107.13,69.22 105.12,70.63 C103.90,71.48 102.33,71.96 101.62,71.68 C100.91,71.41 100.33,71.82 100.33,72.60 C100.33,73.37 101.05,74.01 101.92,74.01 C112.52,74.09 122.60,75.23 124.01,76.51 C124.92,77.33 126.79,78.00 128.18,78.00 C129.35,78.00 131.05,78.32 132.97,78.84 C128.80,77.90 124.01,77.54 118.00,77.53 C108.09,77.50 105.67,77.84 100.50,79.93 C88.29,84.88 80.04,91.92 73.29,103.16 C66.65,114.23 66.57,114.94 66.32,171.98 C66.30,176.60 66.28,180.93 66.24,184.97 C66.27,159.03 65.63,129.45 64.45,128.57 C63.33,127.74 63.23,126.72 63.97,124.00 C64.49,122.07 65.91,116.00 67.11,110.50 C68.31,105.00 69.84,99.59 70.51,98.49 C71.19,97.38 72.06,95.01 72.45,93.24 C72.84,91.46 73.58,90.00 74.10,90.00 C74.62,90.00 75.56,88.88 76.18,87.50 C76.81,86.12 77.92,85.00 78.66,85.00 C79.40,85.00 80.00,84.47 80.00,83.83 C80.00,83.18 80.74,81.83 81.65,80.83 C84.93,77.20 81.81,79.10 76.84,83.75 C74.04,86.36 71.47,88.31 71.13,88.07 C70.96,87.95 70.63,88.13 70.20,88.53 ZM 152.67 167.58 C153.25,169.09 160.20,166.75 164.16,163.70 C173.38,156.62 174.74,154.61 175.45,147.00 C175.89,142.28 176.00,142.00 177.38,142.00 C178.11,142.00 178.68,141.28 179.09,139.76 C177.74,147.97 174.64,154.86 168.74,163.76 C158.26,179.56 139.89,190.00 122.53,190.00 C121.87,190.00 121.25,189.99 120.66,189.98 C123.43,189.95 126.16,189.52 126.84,188.69 C127.65,187.71 127.43,186.96 125.96,185.70 C124.88,184.78 124.00,183.38 124.00,182.60 C124.00,181.11 119.60,180.03 116.64,180.32 C117.65,180.05 118.92,179.84 120.50,179.65 C136.38,177.75 142.48,175.02 154.48,164.50 C157.52,161.83 160.17,158.56 162.37,154.88 C160.48,158.26 158.37,161.09 156.21,162.97 C154.02,164.87 152.43,166.95 152.67,167.58 ZM 31.20 193.80 C33.01,195.61 34.57,195.24 34.57,193.00 C34.57,191.90 34.27,191.00 33.91,191.00 C33.55,191.00 33.55,189.55 33.91,187.78 C34.45,185.15 33.65,182.75 29.50,174.53 C28.75,173.06 28.05,171.61 27.38,170.20 C30.57,176.85 34.44,183.70 37.32,187.50 C42.21,193.97 54.66,206.67 55.39,205.94 C55.63,205.70 56.08,185.48 56.37,161.00 C56.43,156.50 56.49,152.09 56.57,147.88 C56.46,170.00 56.65,196.59 57.16,202.50 C57.46,206.01 57.23,206.54 55.24,206.82 C54.00,207.00 51.57,206.43 49.84,205.57 C48.11,204.71 45.89,204.00 44.91,204.00 C41.35,204.00 41.88,206.61 45.52,210.41 C42.86,208.13 40.42,205.85 38.55,203.87 C28.51,193.21 25.79,189.46 20.54,179.00 C20.25,178.43 19.97,177.85 19.69,177.28 C20.64,179.01 21.49,180.18 22.14,180.58 C22.87,181.04 23.04,180.88 22.60,180.15 C22.20,179.52 22.16,179.00 22.50,179.00 C22.84,179.00 24.05,181.14 25.19,183.75 C26.34,186.36 27.89,188.86 28.64,189.30 C29.39,189.74 30.00,190.66 30.00,191.35 C30.00,192.04 30.54,193.14 31.20,193.80 ZM 694.00 198.07 C694.90,198.69 698.69,198.88 703.50,198.56 C707.90,198.26 722.64,197.72 736.25,197.36 C749.86,197.00 761.00,196.33 761.00,195.86 C761.00,194.65 684.87,194.79 683.00,196.00 C681.93,196.69 683.08,196.98 687.00,197.00 C690.03,197.02 693.17,197.50 694.00,198.07 ZM 501.83 197.14 C506.05,197.49 521.42,197.58 536.00,197.32 C550.58,197.07 565.32,196.88 568.77,196.89 C572.21,196.91 576.03,196.56 577.24,196.11 C578.49,195.64 566.66,195.24 550.20,195.18 C534.10,195.13 520.52,194.82 520.00,194.50 C518.78,193.74 492.79,195.12 493.56,195.90 C493.89,196.23 497.61,196.79 501.83,197.14 ZM 127.41 26.62 C127.86,27.81 128.74,27.98 131.25,27.39 C135.35,26.41 137.98,26.45 140.41,27.51 C141.78,28.10 142.12,28.00 141.61,27.17 C141.16,26.45 141.54,26.00 142.61,26.00 C144.17,26.00 143.76,24.56 142.17,24.46 C141.80,24.43 139.93,23.91 138.00,23.30 C132.39,21.50 120.89,21.01 117.50,22.42 C114.54,23.65 114.59,23.68 120.66,24.37 C124.80,24.85 127.01,25.58 127.41,26.62 ZM 884.00 193.61 C884.00,186.14 884.18,186.00 893.58,186.00 L 897.77 186.00 C897.26,186.10 896.63,186.19 895.86,186.29 C893.58,186.60 891.42,187.32 891.06,187.90 C890.71,188.48 889.43,189.10 888.23,189.28 C885.19,189.75 884.66,190.52 885.40,193.45 C885.91,195.49 886.65,196.00 889.08,196.00 C890.76,196.00 892.97,196.45 894.00,197.00 C895.02,197.55 898.26,198.39 901.18,198.88 C903.98,199.35 905.85,199.64 907.21,199.74 C904.74,200.00 901.41,200.00 896.89,200.00 L 884.00 200.00 ZM 640.69 137.78 C640.80,137.71 640.91,137.63 641.00,137.55 C644.97,134.35 655.87,133.08 662.10,135.10 C670.68,137.87 674.13,140.20 677.32,145.80 C675.39,142.67 672.79,140.71 670.00,140.33 C669.17,140.22 666.70,139.44 664.50,138.61 C662.30,137.77 658.81,137.07 656.75,137.04 C654.69,137.02 653.00,136.55 653.00,136.00 C653.00,135.45 652.13,135.00 651.06,135.00 C649.99,135.00 648.84,135.45 648.50,136.00 C648.16,136.55 646.64,137.00 645.12,137.00 C643.60,137.00 642.11,137.27 640.69,137.78 ZM 32.68 75.16 C28.39,81.89 24.93,89.02 22.58,96.24 C20.46,102.73 19.07,109.90 18.40,117.27 C18.67,113.73 19.05,110.54 19.48,108.50 C20.30,104.65 20.71,100.11 20.40,98.42 C20.02,96.33 20.51,94.16 21.92,91.64 C23.06,89.60 24.00,87.09 24.00,86.05 C24.00,83.25 25.06,81.00 26.38,81.00 C27.03,81.00 28.81,79.57 30.35,77.81 L 32.68 75.16 ZM 10.61 151.84 C10.12,149.47 9.78,147.25 9.62,145.22 C9.43,142.86 8.98,140.65 8.63,140.30 C7.62,139.28 7.90,117.93 9.02,111.43 C9.46,108.86 9.91,106.50 10.38,104.29 C9.19,114.53 9.30,142.71 10.61,151.84 ZM 43.80 58.88 L 41.50 61.50 L 44.15 59.17 C46.67,56.95 47.22,54.89 45.70,53.36 C45.31,52.98 45.00,51.89 45.00,50.94 C45.00,47.63 40.16,49.47 38.69,53.34 C37.70,55.96 38.76,57.20 40.99,56.01 C42.02,55.46 43.59,55.29 44.48,55.63 C45.90,56.18 45.82,56.58 43.80,58.88 ZM 165.19 107.84 C162.68,102.01 159.12,97.15 153.59,91.62 C148.84,86.87 144.81,83.62 140.43,81.45 C142.80,82.47 144.87,83.56 146.00,84.49 C146.82,85.17 148.75,86.03 150.28,86.39 C151.80,86.75 153.90,87.90 154.94,88.94 C155.98,89.98 157.12,90.55 157.47,90.20 C157.82,89.85 157.83,90.29 157.48,91.18 C157.14,92.07 157.35,93.10 157.95,93.47 C158.54,93.84 158.75,94.59 158.41,95.14 C158.07,95.70 158.71,97.13 159.84,98.33 C161.74,100.35 163.60,103.79 165.19,107.84 ZM 234.50 116.50 L 251.00 116.55 C267.23,116.59 274.20,117.30 276.28,119.17 C275.41,118.75 273.63,118.41 271.78,118.34 C269.43,118.25 260.26,117.85 251.40,117.45 L 235.30 116.73 L 234.67 119.12 C234.59,119.39 234.52,120.10 234.46,121.15 L 234.50 116.50 ZM 778.72 138.93 C779.99,137.75 781.17,136.98 781.95,136.97 C782.80,136.95 784.37,136.28 785.44,135.47 C790.54,131.61 807.34,136.85 807.98,142.32 C807.69,140.67 804.01,137.87 802.91,138.56 C802.48,138.82 801.86,138.58 801.51,138.02 C801.16,137.46 799.14,137.00 797.00,137.00 C794.86,137.00 792.84,136.56 792.51,136.01 C792.05,135.27 787.50,135.25 787.50,135.99 C787.50,136.07 785.94,136.34 784.04,136.58 C782.47,136.78 780.33,137.75 778.72,138.93 ZM 970.15 137.18 C966.96,135.94 962.97,135.35 958.36,135.51 C954.43,135.64 950.76,136.03 950.20,136.38 C949.64,136.72 948.51,136.75 947.68,136.43 C947.07,136.20 946.16,136.30 945.13,136.63 C945.30,136.55 945.48,136.47 945.67,136.38 C952.54,133.35 959.96,133.27 967.71,136.16 C968.58,136.48 969.39,136.82 970.15,137.18 ZM 865.64 135.99 C864.06,135.68 862.08,135.61 859.00,135.65 C851.80,135.72 846.80,136.17 843.13,137.33 C844.28,136.80 845.61,136.22 847.15,135.56 C851.52,133.69 858.03,133.58 863.50,135.27 C864.25,135.50 864.96,135.74 865.64,135.99 ZM 928.09 150.85 C931.51,143.69 934.00,138.10 934.00,137.38 C934.00,136.94 934.02,136.62 933.89,136.40 C933.57,135.83 932.32,135.79 927.50,135.51 C924.75,135.36 921.90,135.06 921.16,134.86 C921.09,134.85 921.02,134.83 920.95,134.82 C922.30,134.40 924.34,134.33 927.86,134.21 C932.33,134.05 936.00,134.08 936.00,134.27 C936.00,134.52 932.21,142.41 928.09,150.85 ZM 321.00 196.93 C321.00,198.11 333.84,198.07 334.57,196.89 C334.87,196.40 331.94,196.00 328.06,196.00 C324.18,196.00 321.00,196.42 321.00,196.93 ZM 691.50 181.00 C691.87,181.60 698.57,182.00 708.11,182.00 L 683.90 182.00 L 684.50 169.50 L 684.50 180.50 L 687.69 180.25 C689.45,180.12 691.16,180.46 691.50,181.00 ZM 505.91 116.36 C508.62,115.68 511.04,116.25 513.37,118.07 C516.18,120.29 516.86,124.89 514.89,127.86 C515.50,126.81 515.69,125.13 515.36,123.50 C514.72,120.36 513.46,119.04 511.08,119.02 C510.30,119.01 508.88,118.29 507.92,117.43 C507.11,116.69 506.59,116.34 505.91,116.36 ZM 491.03 181.56 C491.15,181.53 491.27,181.49 491.39,181.45 C492.55,181.06 494.62,180.80 496.00,180.87 C508.19,181.51 518.60,181.81 524.30,181.73 C520.57,181.90 515.08,182.00 509.05,182.00 C498.68,182.00 493.57,181.92 491.03,181.56 ZM 569.12 116.16 C567.66,116.29 567.09,116.85 566.50,118.21 C565.32,120.91 562.67,121.25 562.19,118.75 C562.01,117.79 562.34,117.00 562.93,117.00 C563.52,117.00 564.00,116.50 564.00,115.89 C564.00,115.75 564.02,115.60 564.08,115.44 C564.50,115.70 566.56,116.00 569.12,116.16 ZM 330.50 137.41 C330.21,137.08 329.75,137.00 329.05,137.00 C327.92,137.00 327.00,136.56 327.00,136.01 C327.00,135.47 325.99,135.01 324.75,134.99 C323.51,134.97 317.16,134.69 310.64,134.37 C308.56,134.27 306.75,134.20 305.16,134.17 C307.65,134.13 310.72,134.15 314.50,134.22 L 330.50 134.50 L 330.50 137.41 ZM 806.07 167.16 C802.09,170.83 797.82,172.14 796.55,170.08 C796.23,169.57 794.64,168.86 793.00,168.50 C792.85,168.47 792.71,168.43 792.56,168.39 C794.18,168.68 796.84,168.80 799.29,168.67 C802.84,168.49 804.65,168.11 806.22,167.02 C806.17,167.07 806.12,167.11 806.07,167.16 ZM 582.00 196.00 C582.00,196.55 584.28,197.00 587.06,197.00 C590.18,197.00 591.88,196.62 591.50,196.00 C591.16,195.45 588.88,195.00 586.44,195.00 C584.00,195.00 582.00,195.45 582.00,196.00 ZM 871.12 179.43 C872.25,180.28 873.89,180.63 876.01,180.42 C878.53,180.18 879.87,180.41 879.49,181.01 C879.13,181.59 880.38,182.00 882.49,182.00 L 879.62 182.00 C873.88,182.00 872.97,181.75 871.12,179.43 ZM 227.06 144.22 C227.97,134.84 227.99,121.27 227.04,113.00 C228.53,123.36 228.55,133.86 227.06,144.22 ZM 935.57 170.03 C935.49,169.74 935.42,169.44 935.37,169.14 C934.59,165.02 935.81,164.06 942.06,164.02 C937.17,164.25 935.12,166.86 935.57,170.03 ZM 57.60 114.52 C57.68,113.49 57.75,112.81 57.82,112.50 C59.43,105.37 62.72,98.47 67.23,92.30 C64.66,96.03 61.60,101.38 60.33,104.80 C59.37,107.36 58.27,111.34 57.60,114.52 ZM 630.82 147.56 C632.63,143.45 635.20,140.07 637.36,139.41 C637.45,139.39 637.55,139.36 637.64,139.32 C634.84,141.17 632.46,144.02 630.82,147.56 ZM 168.76 137.58 C169.58,133.00 169.80,128.31 169.34,123.76 C169.74,126.79 169.87,129.64 169.63,132.00 C169.45,133.83 169.15,135.70 168.76,137.58 ZM 65.70 216.74 C65.53,221.31 65.33,223.72 65.10,223.80 C64.28,224.07 61.33,222.41 57.57,219.80 C61.23,222.15 64.27,223.80 64.87,223.71 C65.21,223.65 65.49,221.05 65.70,216.74 ZM 204.32 59.57 C205.50,60.94 206.45,62.11 207.06,62.99 C209.24,66.12 211.26,69.32 213.12,72.58 C210.77,68.56 208.13,64.61 205.18,60.70 C204.88,60.30 204.59,59.92 204.32,59.57 ZM 772.66 167.85 C771.98,165.21 771.64,162.12 771.60,158.50 C771.54,153.72 772.07,149.09 772.91,147.00 C772.98,146.83 773.05,146.65 773.13,146.47 C772.07,149.39 771.67,152.97 771.67,158.00 C771.67,161.86 771.98,165.10 772.66,167.85 ZM 198.00 66.55 C198.00,66.23 197.17,65.22 195.80,63.79 C197.03,64.63 198.00,65.67 198.00,66.17 C198.00,66.69 199.71,69.67 201.81,72.80 C199.71,69.67 198.00,66.86 198.00,66.55 ZM 938.63 152.95 C937.47,151.19 937.00,149.21 937.00,146.82 C937.00,145.60 937.16,144.50 937.51,143.49 C936.66,146.40 937.04,150.19 938.63,152.95 ZM 504.00 130.14 C501.35,129.37 499.83,127.06 499.54,124.55 C500.03,127.12 501.78,129.50 504.00,130.14 ZM 18.26 136.07 C18.68,141.69 19.52,147.19 20.78,152.38 C19.43,147.15 18.63,141.87 18.26,136.07 ZM 13.69 92.22 C14.76,89.17 16.01,86.18 17.52,82.96 C17.18,83.82 16.67,85.01 16.12,86.26 C15.16,88.42 14.39,90.29 13.69,92.22 ZM 528.91 181.38 C528.93,181.37 528.94,181.36 528.96,181.35 C529.31,180.94 529.41,178.72 529.21,176.16 C529.44,178.71 529.48,180.89 529.29,181.25 C529.26,181.29 529.13,181.34 528.91,181.38 ZM 808.61 164.62 C809.36,163.50 809.87,162.14 810.16,160.69 C810.02,162.37 809.64,163.39 808.61,164.62 ZM 234.45 180.74 C234.34,180.44 234.25,177.44 234.21,172.71 C234.29,176.86 234.41,179.86 234.56,180.92 C234.51,180.87 234.48,180.80 234.45,180.74 ZM 786.24 160.73 C785.43,157.17 786.07,153.20 788.61,150.66 C786.18,153.09 785.50,157.11 786.24,160.73 ZM 113.51 187.73 C113.14,187.02 113.00,186.10 113.00,184.92 C113.00,183.64 113.19,182.69 113.74,181.96 C112.90,183.52 112.81,186.06 113.51,187.73 ZM 810.04 154.59 C809.62,152.93 808.88,151.43 807.81,150.36 C809.11,151.65 809.75,152.75 810.04,154.59 ZM 836.86 141.11 C835.81,142.22 834.92,143.55 834.08,145.12 C833.05,147.06 832.41,148.55 832.22,149.68 C832.41,148.54 833.04,147.04 834.08,145.08 C834.98,143.38 835.75,142.17 836.86,141.11 ZM 564.86 114.33 C565.69,113.46 567.26,112.15 570.21,109.86 C567.83,111.74 565.91,113.34 564.86,114.33 ZM 14.11 164.01 C13.27,161.64 12.53,159.31 11.90,157.07 C12.59,159.42 13.34,161.76 14.11,164.01 ZM 678.44 147.95 C679.28,149.93 679.82,152.75 680.03,155.74 C679.81,152.80 679.28,150.00 678.44,147.95 ZM 914.35 193.01 C914.58,191.35 914.77,189.10 914.99,185.93 C914.79,188.86 914.63,191.17 914.35,193.01 ZM 501.21 118.91 C501.71,118.34 502.33,117.85 503.07,117.47 C503.10,117.45 503.13,117.43 503.16,117.42 C502.46,117.79 501.79,118.31 501.21,118.91 ZM 488.61 180.42 C488.06,179.00 487.90,176.64 488.06,174.54 C487.91,176.63 488.07,178.98 488.62,180.44 C488.61,180.44 488.61,180.43 488.61,180.42 ZM 911.57 198.54 C911.71,198.43 911.86,198.31 912.02,198.18 C912.30,197.96 912.55,197.73 912.77,197.48 C912.66,197.62 912.54,197.75 912.42,197.88 C912.17,198.13 911.88,198.35 911.57,198.54 ZM 918.67 136.74 C918.25,137.53 917.79,138.59 917.22,140.00 C917.79,138.58 918.22,137.52 918.67,136.74 ZM 278.63 121.17 C279.15,121.55 279.71,121.94 280.24,122.28 C281.83,123.29 283.07,124.71 284.01,126.59 C283.07,124.71 281.82,123.30 280.24,122.29 C279.69,121.94 279.13,121.55 278.63,121.17 ZM 810.01 144.98 C811.00,145.52 812.05,145.72 812.41,145.15 C812.04,145.74 810.99,145.54 810.01,144.98 ZM 946.47 164.45 C947.68,164.85 948.60,165.58 949.81,166.86 C948.62,165.60 947.67,164.86 946.47,164.45 ZM 900.00 181.98 C900.00,181.14 899.83,180.10 899.46,178.79 C899.83,180.08 900.00,181.09 900.00,181.87 C900.00,181.91 900.00,181.95 900.00,181.98 ZM 916.60 174.67 C917.12,173.00 917.82,171.44 918.83,169.50 C919.09,168.99 919.36,168.47 919.63,167.95 C919.33,168.53 919.06,169.05 918.83,169.50 C917.83,171.44 917.12,173.00 916.60,174.67 ZM 238.54 181.90 C239.63,181.97 240.86,182.00 242.13,182.00 L 241.93 182.00 C240.63,182.00 239.50,181.97 238.54,181.90 ZM 177.32 109.35 C177.50,109.98 177.68,110.61 177.85,111.25 C177.68,110.64 177.51,110.01 177.32,109.35 ZM 293.80 137.35 C293.56,137.75 293.33,138.18 293.11,138.66 C293.33,138.18 293.55,137.74 293.80,137.35 Z" fill="rgba(57,37,86,1)"/>
<path d="M 782.65 180.00 C774.67,176.01 771.67,170.00 771.67,158.00 C771.67,148.50 773.11,144.14 777.71,139.76 C779.31,138.24 782.11,136.83 784.04,136.58 C785.94,136.34 787.50,136.07 787.50,135.99 C787.50,135.25 792.05,135.27 792.51,136.01 C792.84,136.56 794.86,137.00 797.00,137.00 C799.14,137.00 801.16,137.46 801.51,138.02 C801.86,138.58 802.48,138.82 802.91,138.56 C804.06,137.84 808.00,140.91 808.00,142.52 C808.00,144.20 811.65,146.37 812.41,145.15 C812.70,144.67 812.51,142.76 811.97,140.90 C811.44,139.04 811.00,132.27 811.00,125.85 L 811.00 114.20 L 825.50 114.78 L 825.50 181.50 L 810.73 182.09 L 811.36 178.30 C811.71,176.21 812.28,173.49 812.62,172.25 C813.66,168.45 810.54,169.58 807.57,174.08 C802.67,181.47 791.11,184.22 782.65,180.00 ZM 234.67 181.33 C233.82,180.48 233.81,122.30 234.67,119.12 L 235.30 116.73 L 251.40 117.45 C260.26,117.85 269.43,118.25 271.78,118.34 C274.14,118.43 276.39,118.96 276.78,119.52 C277.18,120.09 278.74,121.33 280.24,122.29 C284.35,124.91 286.20,130.24 286.26,139.60 C286.29,146.19 285.88,148.44 284.06,151.69 C280.08,158.76 274.57,161.10 260.00,161.92 L 249.50 162.50 L 248.93 182.00 L 242.13 182.00 C238.39,182.00 235.03,181.70 234.67,181.33 ZM 557.96 121.11 C559.89,119.23 561.51,117.81 562.42,117.25 C562.17,117.56 562.07,118.12 562.19,118.75 C562.67,121.25 565.32,120.91 566.50,118.21 C567.34,116.28 568.14,115.96 571.50,116.21 L 575.50 116.50 L 576.05 143.71 L 584.28 144.35 C595.60,145.23 605.24,145.13 606.83,144.12 C607.82,143.50 608.21,139.81 608.33,129.89 L 608.50 116.50 L 623.00 116.42 L 623.22 142.21 C623.34,156.39 623.45,171.04 623.47,174.75 L 623.50 181.50 L 608.50 181.50 L 608.22 169.22 L 607.94 156.95 L 592.22 157.22 L 576.50 157.50 L 575.50 181.50 L 561.00 182.09 L 561.00 151.04 C561.00,127.40 560.71,120.00 559.79,120.00 C559.46,120.00 558.81,120.41 557.96,121.11 ZM 643.14 179.84 C631.84,175.49 626.61,165.94 628.87,153.75 C630.68,143.94 637.42,137.00 645.12,137.00 C646.64,137.00 648.16,136.55 648.50,136.00 C648.84,135.45 649.99,135.00 651.06,135.00 C652.13,135.00 653.00,135.45 653.00,136.00 C653.00,136.55 654.69,137.02 656.75,137.04 C658.81,137.07 662.30,137.77 664.50,138.61 C666.70,139.44 669.17,140.22 670.00,140.33 C673.15,140.76 676.07,143.21 678.04,147.09 C680.55,152.00 680.87,162.98 678.66,168.27 C673.91,179.63 656.97,185.15 643.14,179.84 ZM 840.16 180.64 C832.62,177.91 829.25,170.50 832.46,163.73 C835.09,158.18 841.69,155.56 858.31,153.46 C864.02,152.75 865.45,150.60 862.06,147.84 C860.62,146.68 858.17,146.00 855.42,146.00 C851.78,146.00 850.50,146.57 847.57,149.50 C844.41,152.66 843.53,153.00 838.50,153.00 C831.55,153.00 830.70,151.47 834.08,145.12 C837.98,137.78 843.15,135.82 859.00,135.65 C865.39,135.58 867.05,135.93 870.20,138.03 C875.91,141.84 878.29,146.96 878.73,156.45 C879.26,167.92 879.54,168.81 882.75,169.18 C885.39,169.49 885.51,169.76 885.80,175.75 L 886.10 182.00 L 882.49 182.00 C880.38,182.00 879.13,181.59 879.49,181.01 C879.87,180.41 878.53,180.18 876.01,180.42 C870.81,180.92 868.51,178.13 869.55,172.58 C870.09,169.69 869.92,169.00 868.63,169.00 C867.75,169.00 866.77,170.07 866.44,171.38 C865.64,174.56 860.30,179.46 856.10,180.87 C851.79,182.31 844.48,182.20 840.16,180.64 ZM 403.50 179.93 C397.23,177.57 391.52,171.65 389.96,165.86 C389.31,163.46 388.99,158.57 389.25,155.00 C390.15,142.76 396.00,137.00 409.62,134.96 C416.89,133.87 417.93,133.95 423.15,135.92 C432.14,139.33 436.86,145.56 437.80,155.25 L 438.25 160.00 L 421.19 160.00 C410.27,160.00 403.88,160.38 403.46,161.06 C402.21,163.08 404.05,166.97 406.96,168.48 C408.58,169.32 412.09,170.00 414.77,170.00 C418.77,170.00 420.24,169.46 423.00,167.00 C425.92,164.39 427.12,164.00 432.21,164.00 C436.46,164.00 438.22,164.41 438.63,165.49 C439.43,167.57 434.22,175.43 430.56,177.65 C422.91,182.28 412.16,183.19 403.50,179.93 ZM 351.50 180.88 C342.20,177.59 338.31,173.96 335.46,165.89 C333.71,160.92 333.64,157.80 335.12,150.87 C336.02,146.69 337.19,144.71 340.94,141.07 C355.82,126.58 381.58,135.68 383.22,156.00 L 383.50 159.50 L 366.01 160.00 C350.28,160.45 348.49,160.68 348.18,162.28 C347.99,163.29 349.20,165.32 351.03,167.03 C355.58,171.28 362.43,171.25 368.43,166.94 C372.13,164.28 373.39,163.92 378.09,164.19 C382.65,164.45 383.55,164.82 383.79,166.54 C384.26,169.80 378.70,176.48 373.34,179.10 C367.88,181.76 356.59,182.68 351.50,180.88 ZM 901.18 198.88 C898.26,198.39 895.02,197.55 894.00,197.00 C892.97,196.45 890.76,196.00 889.08,196.00 C886.65,196.00 885.91,195.49 885.40,193.45 C884.66,190.52 885.19,189.75 888.23,189.28 C889.43,189.10 890.71,188.48 891.06,187.90 C891.42,187.32 893.58,186.60 895.86,186.29 C899.90,185.75 900.00,185.65 900.00,181.87 C900.00,179.10 897.85,173.58 892.41,162.36 C888.24,153.75 884.66,145.82 884.45,144.73 C884.24,143.64 883.28,141.57 882.32,140.13 C879.69,136.17 879.84,135.00 882.95,135.00 C884.47,135.00 887.77,134.72 890.28,134.38 L 894.84 133.75 L 897.03 138.57 C901.62,148.65 906.00,161.04 906.00,163.96 C906.00,169.71 909.08,167.22 909.63,161.01 C909.94,157.58 910.79,155.09 914.70,146.00 C915.53,144.07 916.66,141.38 917.22,140.00 C919.06,135.46 919.80,134.50 921.16,134.86 C921.90,135.06 924.75,135.36 927.50,135.51 C932.32,135.79 933.57,135.83 933.89,136.40 C934.02,136.62 934.00,136.94 934.00,137.38 C934.00,138.68 925.87,155.88 918.83,169.50 C916.19,174.60 915.61,177.06 914.99,185.93 C914.35,195.05 913.98,196.60 912.02,198.18 C909.58,200.16 909.07,200.19 901.18,198.88 ZM 691.50 181.00 C691.16,180.46 689.45,180.12 687.69,180.25 L 684.50 180.50 L 684.50 169.50 L 690.25 169.20 L 696.00 168.90 L 696.00 148.45 C696.00,137.20 696.11,127.66 696.25,127.25 C696.39,126.84 694.12,126.36 691.20,126.20 L 685.91 125.89 L 686.20 119.70 L 686.50 113.50 L 696.84 113.50 C702.72,113.50 706.17,113.26 708.18,114.85 C711.27,117.27 711.00,123.97 711.02,142.36 C711.02,155.64 711.37,167.04 711.79,167.69 C712.20,168.34 715.01,169.02 718.02,169.19 L 723.50 169.50 L 724.10 182.00 L 708.11 182.00 C698.57,182.00 691.87,181.60 691.50,181.00 ZM 945.67 180.02 C933.77,175.37 931.71,164.00 942.78,164.00 C946.25,164.00 947.65,164.57 949.81,166.86 C953.42,170.70 957.93,172.13 962.45,170.89 C964.82,170.23 966.00,169.31 966.00,168.12 C966.00,166.06 964.01,164.96 955.00,162.00 C945.33,158.82 940.55,156.20 938.68,153.03 C936.57,149.47 936.52,144.13 938.56,141.22 C940.54,138.39 945.72,135.68 947.68,136.43 C948.51,136.75 949.64,136.72 950.20,136.38 C950.76,136.03 954.43,135.64 958.36,135.51 C969.51,135.13 976.98,139.08 978.54,146.19 C979.45,150.31 978.48,151.00 971.73,151.00 C966.35,151.00 965.32,150.68 963.54,148.47 C960.12,144.22 950.70,144.18 952.33,148.43 C952.97,150.09 960.94,154.00 963.69,154.00 C964.53,154.00 968.01,155.33 971.42,156.96 C978.51,160.34 980.50,163.15 980.50,169.76 C980.50,173.58 980.03,174.61 977.21,176.96 C975.41,178.47 972.21,180.22 970.10,180.85 C964.11,182.65 951.28,182.21 945.67,180.02 ZM 454.66 179.95 C452.08,177.92 452.05,177.74 451.78,162.70 L 451.50 147.50 L 441.50 146.50 L 441.20 140.25 L 440.90 134.00 L 452.00 134.00 L 452.00 130.12 C452.00,127.99 452.56,125.82 453.25,125.30 C454.45,124.40 462.42,121.77 464.50,121.59 C465.05,121.54 465.73,124.20 466.00,127.50 L 466.50 133.50 L 474.30 133.79 L 482.09 134.09 L 481.80 140.29 L 481.50 146.50 L 467.50 147.50 L 467.00 157.35 C466.73,162.77 466.74,167.59 467.03,168.06 C467.32,168.53 471.15,169.04 475.53,169.20 L 483.50 169.50 L 483.80 175.75 L 484.10 182.00 L 470.68 182.00 C458.67,182.00 457.00,181.79 454.66,179.95 ZM 54.70 217.89 C43.86,210.49 39.29,204.00 44.91,204.00 C45.89,204.00 48.11,204.71 49.84,205.57 C51.57,206.43 54.00,207.00 55.24,206.82 C57.23,206.54 57.46,206.01 57.16,202.50 C56.30,192.40 56.35,121.88 57.23,116.50 C57.76,113.20 59.16,107.94 60.33,104.80 C62.52,98.92 70.02,87.31 71.13,88.07 C71.47,88.31 74.04,86.36 76.84,83.75 C81.81,79.10 84.93,77.20 81.65,80.83 C80.74,81.83 80.00,83.18 80.00,83.83 C80.00,84.47 79.40,85.00 78.66,85.00 C77.92,85.00 76.81,86.12 76.18,87.50 C75.56,88.88 74.62,90.00 74.10,90.00 C73.58,90.00 72.84,91.46 72.45,93.24 C72.06,95.01 71.19,97.38 70.51,98.49 C69.84,99.59 68.31,105.00 67.11,110.50 C65.91,116.00 64.49,122.07 63.97,124.00 C63.23,126.72 63.33,127.74 64.45,128.57 C66.55,130.13 66.96,223.39 64.87,223.71 C64.11,223.82 59.54,221.20 54.70,217.89 ZM 728.20 175.77 L 728.50 169.50 L 740.50 168.50 L 740.78 158.30 L 741.07 148.11 L 735.78 147.80 L 730.50 147.50 L 730.19 142.17 C729.76,134.55 730.52,133.99 741.37,134.03 C755.16,134.08 756.00,135.31 756.00,155.57 L 756.00 169.00 L 759.25 169.11 C761.04,169.16 763.72,169.13 765.21,169.03 C768.35,168.83 769.34,171.18 768.82,177.60 L 768.50 181.50 L 748.20 181.77 L 727.90 182.04 ZM 152.67 167.58 C152.43,166.95 154.02,164.87 156.21,162.97 C162.54,157.46 168.45,143.83 169.63,132.00 C170.61,122.22 165.38,104.22 159.84,98.33 C158.71,97.13 158.07,95.70 158.41,95.14 C158.75,94.59 158.54,93.84 157.95,93.47 C157.35,93.10 157.14,92.07 157.48,91.18 C157.83,90.29 157.82,89.85 157.47,90.20 C157.12,90.55 155.98,89.98 154.94,88.94 C153.90,87.90 151.80,86.75 150.28,86.39 C148.75,86.03 146.82,85.17 146.00,84.49 C142.80,81.85 132.23,78.00 128.18,78.00 C126.79,78.00 124.92,77.33 124.01,76.51 C122.60,75.23 112.52,74.09 101.92,74.01 C101.05,74.01 100.33,73.37 100.33,72.60 C100.33,71.82 100.91,71.41 101.62,71.68 C102.33,71.96 103.90,71.48 105.12,70.63 C107.13,69.22 107.45,69.23 108.54,70.72 C109.61,72.19 110.49,72.23 116.81,71.10 C120.70,70.41 124.92,69.98 126.19,70.14 C127.46,70.30 128.97,70.14 129.55,69.79 C130.80,69.01 140.10,71.96 145.00,74.70 C147.36,76.02 148.60,77.50 148.81,79.24 C148.98,80.67 149.74,82.07 150.51,82.36 C151.42,82.71 151.71,82.40 151.34,81.45 C151.04,80.65 151.28,80.00 151.89,80.00 C152.50,80.00 153.00,80.88 153.00,81.96 C153.00,83.05 153.90,84.41 155.00,85.00 C156.10,85.59 157.00,86.76 157.00,87.61 C157.00,88.56 157.67,89.00 158.75,88.75 C160.48,88.36 166.01,90.76 169.08,93.23 C171.20,94.93 175.31,102.55 176.77,107.50 C179.46,116.57 179.99,119.88 179.99,127.62 C180.00,137.55 179.19,142.00 177.38,142.00 C176.00,142.00 175.89,142.28 175.45,147.00 C174.74,154.61 173.38,156.62 164.16,163.70 C160.20,166.75 153.25,169.09 152.67,167.58 ZM 204.00 184.26 C205.10,182.21 206.00,179.75 206.00,178.79 C206.00,177.84 207.16,174.46 208.59,171.28 C210.01,168.10 211.98,163.70 212.97,161.50 C217.70,150.96 219.55,123.96 216.54,109.50 C213.48,94.86 208.86,83.35 201.81,72.80 C199.71,69.67 198.00,66.69 198.00,66.17 C198.00,65.65 196.94,64.53 195.64,63.68 C193.60,62.35 191.27,56.39 192.36,55.30 C192.57,55.10 193.91,55.46 195.34,56.11 C197.35,57.02 198.27,57.02 199.38,56.10 C200.56,55.12 201.60,55.95 205.18,60.70 C216.63,75.89 223.46,91.67 226.66,110.34 C228.27,119.71 228.06,140.92 226.26,150.15 C225.20,155.54 222.90,158.50 221.14,156.74 C220.29,155.89 220.00,156.00 220.00,157.16 C220.00,158.02 218.65,160.42 217.00,162.50 C215.35,164.58 214.00,167.09 214.00,168.08 C214.00,169.07 213.55,170.16 213.00,170.50 C212.45,170.84 212.00,171.75 212.00,172.53 C212.00,173.93 203.32,188.00 202.45,188.00 C202.20,188.00 202.90,186.32 204.00,184.26 ZM 488.64 180.50 C487.54,177.65 487.94,171.30 489.28,170.18 C489.98,169.60 493.02,168.98 496.03,168.81 L 501.50 168.50 L 501.78 158.25 L 502.07 148.00 L 497.23 148.00 C494.58,148.00 491.86,147.46 491.20,146.80 C490.54,146.14 490.00,143.27 490.00,140.43 L 490.00 135.26 L 493.75 134.64 C501.74,133.32 510.66,133.90 513.14,135.91 C515.39,137.73 515.52,138.54 516.00,153.16 L 516.50 168.50 L 528.50 169.50 L 529.10 175.00 C529.43,178.02 529.37,180.88 528.96,181.35 C528.35,182.03 514.16,181.82 496.00,180.87 C494.62,180.80 492.55,181.06 491.39,181.45 C489.89,181.96 489.09,181.68 488.64,180.50 ZM 31.20 193.80 C30.54,193.14 30.00,192.04 30.00,191.35 C30.00,190.66 29.39,189.74 28.64,189.30 C27.89,188.86 26.34,186.36 25.19,183.75 C24.05,181.14 22.84,179.00 22.50,179.00 C22.16,179.00 22.20,179.52 22.60,180.15 C23.04,180.88 22.87,181.04 22.14,180.58 C19.62,179.03 14.16,165.88 10.96,153.67 C9.15,146.75 9.06,108.13 10.85,101.50 C12.61,94.94 13.83,91.41 16.12,86.26 C17.15,83.93 18.00,81.83 18.00,81.60 C18.00,81.37 19.84,77.99 22.09,74.09 C26.19,66.98 27.22,66.19 30.00,68.02 C31.33,68.89 31.33,69.11 30.00,70.01 C28.72,70.87 28.84,71.28 30.83,72.82 L 33.15 74.62 L 30.35 77.81 C28.81,79.57 27.03,81.00 26.38,81.00 C25.06,81.00 24.00,83.25 24.00,86.05 C24.00,87.09 23.06,89.60 21.92,91.64 C20.51,94.16 20.02,96.33 20.40,98.42 C20.71,100.11 20.30,104.65 19.48,108.50 C18.64,112.46 18.00,120.72 18.00,127.50 C18.00,145.55 20.96,157.63 29.50,174.53 C33.65,182.75 34.45,185.15 33.91,187.78 C33.55,189.55 33.55,191.00 33.91,191.00 C34.27,191.00 34.57,191.90 34.57,193.00 C34.57,195.24 33.01,195.61 31.20,193.80 ZM 292.67 181.33 C291.50,180.17 291.91,141.30 293.11,138.66 C295.06,134.37 297.71,133.72 310.64,134.37 C317.16,134.69 323.51,134.97 324.75,134.99 C325.99,135.01 327.00,135.47 327.00,136.01 C327.00,136.56 327.92,137.00 329.05,137.00 C330.88,137.00 331.08,137.53 330.80,141.75 L 330.50 146.50 L 307.50 147.50 L 306.95 182.00 L 300.14 182.00 C296.40,182.00 293.03,181.70 292.67,181.33 ZM 806.07 167.16 C809.94,163.59 810.23,162.95 810.23,158.05 C810.23,153.81 809.76,152.30 807.81,150.36 C803.29,145.83 793.28,145.99 788.61,150.66 C783.42,155.86 786.16,167.00 793.00,168.50 C794.64,168.86 796.23,169.57 796.55,170.08 C797.82,172.14 802.09,170.83 806.07,167.16 ZM 270.20 146.00 C272.74,142.87 272.64,135.06 270.02,132.25 C267.79,129.85 261.97,128.70 254.50,129.18 L 249.50 129.50 L 249.21 137.92 C249.05,142.55 249.17,146.99 249.48,147.80 C249.94,149.01 251.72,149.18 259.22,148.75 C267.14,148.30 268.64,147.92 270.20,146.00 ZM 664.14 164.54 C667.73,158.65 666.01,151.18 660.46,148.55 C656.39,146.61 652.92,146.59 648.46,148.45 C644.29,150.20 642.64,153.81 643.29,159.79 C643.89,165.20 646.14,167.71 651.37,168.77 C657.02,169.92 661.83,168.32 664.14,164.54 ZM 744.00 130.32 C739.14,128.43 737.24,121.91 740.57,118.57 C745.49,113.65 756.00,117.06 756.00,123.58 C756.00,128.21 748.87,132.22 744.00,130.32 ZM 694.00 198.07 C693.17,197.50 690.03,197.02 687.00,197.00 C683.08,196.98 681.93,196.69 683.00,196.00 C684.87,194.79 761.00,194.65 761.00,195.86 C761.00,196.33 749.86,197.00 736.25,197.36 C722.64,197.72 707.90,198.26 703.50,198.56 C698.69,198.88 694.90,198.69 694.00,198.07 ZM 501.83 197.14 C497.61,196.79 493.89,196.23 493.56,195.90 C492.79,195.12 518.78,193.74 520.00,194.50 C520.52,194.82 534.10,195.13 550.20,195.18 C566.66,195.24 578.49,195.64 577.24,196.11 C576.03,196.56 572.21,196.91 568.77,196.89 C565.32,196.88 550.58,197.07 536.00,197.32 C521.42,197.58 506.05,197.49 501.83,197.14 ZM 504.00 130.14 C500.91,129.24 498.72,124.97 499.59,121.51 C499.95,120.06 501.54,118.26 503.21,117.39 C505.89,116.00 506.35,116.01 507.92,117.43 C508.88,118.29 510.30,119.01 511.08,119.02 C513.46,119.04 514.72,120.36 515.36,123.50 C515.72,125.30 515.45,127.17 514.68,128.17 C513.17,130.13 507.55,131.17 504.00,130.14 ZM 114.20 188.80 C112.54,187.14 112.70,182.50 114.47,181.03 C116.43,179.40 124.00,180.64 124.00,182.60 C124.00,183.38 124.88,184.78 125.96,185.70 C127.43,186.96 127.65,187.71 126.84,188.69 C125.47,190.35 115.83,190.43 114.20,188.80 ZM 365.08 152.00 C369.68,152.00 370.32,150.09 366.54,147.62 C361.63,144.40 348.00,146.50 348.00,150.47 C348.00,151.48 349.55,152.00 353.25,152.26 C356.14,152.45 359.10,152.48 359.83,152.31 C360.56,152.14 362.93,152.00 365.08,152.00 ZM 424.00 151.27 C424.27,151.03 423.24,149.74 421.69,148.41 C417.99,145.23 410.05,145.06 405.12,148.07 C403.17,149.26 402.11,150.50 402.62,151.01 C404.20,152.58 422.28,152.80 424.00,151.27 ZM 127.41 26.62 C127.01,25.58 124.80,24.85 120.66,24.37 C114.59,23.68 114.54,23.65 117.50,22.42 C120.89,21.01 132.39,21.50 138.00,23.30 C139.93,23.91 141.80,24.43 142.17,24.46 C143.76,24.56 144.17,26.00 142.61,26.00 C141.54,26.00 141.16,26.45 141.61,27.17 C142.12,28.00 141.78,28.10 140.41,27.51 C137.98,26.45 135.35,26.41 131.25,27.39 C128.74,27.98 127.86,27.81 127.41,26.62 ZM 861.00 166.10 C863.74,164.11 864.47,160.28 862.00,160.84 C861.17,161.03 858.03,161.43 855.00,161.73 C846.64,162.56 844.06,164.61 847.25,167.88 C848.95,169.62 857.73,168.49 861.00,166.10 ZM 112.36 234.49 C111.22,231.52 112.64,230.55 118.52,230.31 C121.74,230.18 124.95,230.55 125.65,231.12 C126.34,231.70 127.35,231.90 127.89,231.57 C128.42,231.24 129.12,231.39 129.44,231.90 C130.17,233.08 125.08,234.66 118.20,235.37 C114.16,235.79 112.78,235.58 112.36,234.49 ZM 43.80 58.88 C45.82,56.58 45.90,56.18 44.48,55.63 C43.59,55.29 42.02,55.46 40.99,56.01 C38.76,57.20 37.70,55.96 38.69,53.34 C40.16,49.47 45.00,47.63 45.00,50.94 C45.00,51.89 45.31,52.98 45.70,53.36 C47.22,54.89 46.67,56.95 44.15,59.17 L 41.50 61.50 ZM 321.00 196.93 C321.00,196.42 324.18,196.00 328.06,196.00 C331.94,196.00 334.87,196.40 334.57,196.89 C333.84,198.07 321.00,198.11 321.00,196.93 ZM 582.00 196.00 C582.00,195.45 584.00,195.00 586.44,195.00 C588.88,195.00 591.16,195.45 591.50,196.00 C591.88,196.62 590.18,197.00 587.06,197.00 C584.28,197.00 582.00,196.55 582.00,196.00 ZM 135.43 235.30 C135.56,234.37 136.20,233.43 136.84,233.22 C138.16,232.78 138.26,233.17 137.39,235.42 C136.58,237.53 135.11,237.44 135.43,235.30 ZM 541.31 141.41 C542.21,139.87 543.18,138.31 544.23,136.74 C544.73,136.00 545.36,135.14 546.10,134.20 C545.36,135.17 544.68,136.12 544.08,137.00 C543.09,138.47 542.17,139.94 541.31,141.41 Z" fill="rgba(62,42,93,1)"/>
<path d="M 349.91 236.72 C347.44,234.82 346.00,231.46 346.00,227.57 C346.00,223.78 344.69,222.83 343.50,225.75 C342.84,227.36 342.71,227.34 341.90,225.50 C341.20,223.95 341.12,224.17 341.51,226.50 C342.02,229.52 339.03,236.00 337.12,236.00 C336.04,236.00 334.57,232.93 334.96,231.50 C337.71,221.47 339.13,211.81 338.10,210.15 C335.97,206.73 330.00,213.96 330.00,219.95 C330.00,221.63 329.81,223.00 329.58,223.00 C323.37,223.00 325.97,210.45 332.85,207.20 C336.41,205.52 337.34,205.67 339.83,208.31 C341.57,210.18 342.00,211.84 342.00,216.81 C342.00,220.22 342.34,223.00 342.75,223.00 C343.16,223.00 345.05,219.62 346.94,215.50 C348.84,211.37 350.64,208.01 350.94,208.02 C351.25,208.02 352.14,208.43 352.92,208.93 C354.12,209.69 354.00,210.87 352.17,216.69 C346.23,235.50 353.40,242.03 359.85,223.69 C362.24,216.88 362.79,206.43 360.80,205.77 C360.01,205.50 359.96,205.15 360.64,204.72 C361.21,204.37 362.69,204.80 363.94,205.67 C366.02,207.13 366.17,207.86 365.80,214.88 C365.03,229.63 356.31,241.63 349.91,236.72 ZM 613.85 240.29 C614.19,234.93 614.10,234.67 612.45,236.04 C610.79,237.41 610.72,237.17 611.33,232.00 C611.97,226.56 611.96,226.53 610.24,229.00 C604.96,236.59 600.66,237.89 598.15,232.64 C596.94,230.11 597.04,229.08 598.97,223.64 C602.62,213.33 603.22,210.82 602.25,209.85 C601.75,209.35 600.70,209.18 599.92,209.48 C597.61,210.38 594.00,216.41 594.00,219.39 C594.00,221.47 593.57,222.07 592.25,221.82 C591.03,221.58 590.41,220.36 590.19,217.80 C589.93,214.63 590.45,213.55 593.94,210.06 C598.79,205.21 601.94,204.83 605.00,208.72 C607.44,211.82 607.19,215.05 603.95,222.62 C601.86,227.48 601.39,232.00 602.96,232.00 C605.50,232.00 611.42,222.09 615.10,211.69 C616.83,206.81 618.50,205.34 620.48,206.98 C621.46,207.80 621.67,208.76 621.10,209.86 C618.92,214.03 615.75,230.19 615.63,237.75 C615.55,242.49 615.07,245.99 614.50,246.00 C613.91,246.00 613.64,243.67 613.85,240.29 ZM 431.51 235.03 C430.81,232.84 432.10,225.08 434.41,217.54 C435.59,213.69 435.66,212.40 434.72,211.80 C433.77,211.20 433.78,211.03 434.75,211.02 C435.44,211.01 436.11,211.11 436.25,211.24 C436.39,211.37 438.13,210.47 440.12,209.24 C444.80,206.34 446.56,206.42 449.55,209.65 C453.39,213.79 452.87,218.10 447.87,223.52 C444.37,227.32 443.17,228.00 439.93,228.00 C436.18,228.00 436.11,228.07 435.45,232.50 C434.74,237.22 432.63,238.57 431.51,235.03 ZM 823.11 244.63 C821.43,242.61 822.70,240.37 826.58,238.53 C830.53,236.65 831.11,235.07 827.59,235.74 C824.10,236.41 822.70,233.22 823.55,226.48 C824.33,220.21 826.23,216.88 828.03,218.64 C828.91,219.51 828.90,221.16 828.01,225.47 C826.32,233.61 828.18,234.57 830.97,227.00 C833.84,219.18 834.54,217.96 836.00,218.26 C837.55,218.57 837.58,219.20 836.42,227.25 C835.75,231.93 837.04,233.94 838.42,230.36 C838.76,229.45 839.34,229.00 839.69,229.36 C840.04,229.71 838.98,231.69 837.32,233.75 C835.66,235.81 833.56,238.95 832.64,240.72 C830.12,245.59 825.48,247.49 823.11,244.63 ZM 486.96 234.45 C485.42,232.60 485.53,225.74 487.15,222.71 C489.17,218.95 490.53,218.20 495.07,218.35 C497.04,218.42 498.19,218.39 498.78,218.96 C499.65,219.80 499.26,221.94 498.42,227.63 C497.67,232.72 499.32,234.15 501.16,230.01 C501.89,228.35 502.83,227.00 503.24,227.00 C505.63,227.00 501.25,235.32 498.59,235.84 C497.64,236.02 495.95,235.36 494.84,234.36 C492.95,232.65 492.78,232.64 491.87,234.27 C490.67,236.42 488.65,236.49 486.96,234.45 ZM 712.75 235.88 C708.96,233.06 709.14,229.52 713.25,225.91 L 716.50 223.06 L 714.25 221.47 C711.20,219.32 711.42,217.08 715.08,212.96 C716.77,211.06 717.91,210.27 717.62,211.22 C717.33,212.16 717.51,213.20 718.03,213.52 C718.58,213.86 718.29,215.16 717.35,216.58 C715.36,219.62 715.89,220.21 721.19,220.94 C723.47,221.25 725.50,221.98 725.69,222.56 C725.88,223.15 723.78,224.65 721.01,225.90 C712.86,229.58 711.84,234.00 719.15,234.00 C723.28,234.00 727.87,231.52 731.16,227.52 C733.65,224.51 734.52,226.42 732.36,230.13 C730.19,233.84 722.90,237.95 718.50,237.94 C716.85,237.94 714.26,237.01 712.75,235.88 ZM 796.39 233.48 C793.15,228.53 796.59,218.00 801.45,218.00 C804.58,218.00 808.30,222.65 807.70,225.81 C807.31,227.85 807.55,228.08 809.61,227.56 C811.82,227.01 811.90,227.13 810.83,229.48 C810.19,230.87 809.19,232.01 808.59,232.02 C807.99,232.03 806.38,232.92 805.00,234.00 C801.55,236.70 798.38,236.51 796.39,233.48 ZM 634.04 233.54 C632.15,231.53 631.84,230.38 632.34,227.31 C633.59,219.56 639.42,215.88 643.32,220.37 C644.53,221.77 645.03,223.59 644.79,225.71 C644.44,228.68 644.60,228.89 646.81,228.33 C649.01,227.78 649.12,227.91 648.07,229.86 C647.44,231.04 646.38,232.01 645.71,232.02 C645.05,232.03 643.38,232.92 642.00,234.00 C638.67,236.60 636.81,236.49 634.04,233.54 ZM 661.20 234.80 C658.42,232.02 661.02,218.00 664.32,218.00 C665.93,218.00 666.13,218.51 665.62,221.25 C663.97,230.05 663.80,232.00 664.70,232.00 C665.87,232.00 667.42,229.00 669.35,223.00 C670.78,218.54 673.27,216.65 674.27,219.26 C674.55,220.00 674.22,222.84 673.51,225.56 C672.13,230.93 672.32,232.00 674.64,232.00 C676.50,232.00 675.98,233.98 673.75,235.39 C672.52,236.16 671.58,235.93 669.97,234.47 C667.94,232.64 667.75,232.62 666.55,234.26 C665.07,236.29 662.90,236.50 661.20,234.80 ZM 766.11 244.63 C764.43,242.61 765.70,240.37 769.57,238.53 C773.18,236.82 773.89,235.27 774.41,228.00 C774.82,222.22 776.54,218.00 778.48,218.00 C780.33,218.00 780.48,221.67 778.84,227.14 C778.20,229.27 777.96,231.29 778.29,231.63 C779.05,232.38 782.00,229.55 782.00,228.07 C782.00,227.48 782.45,227.00 783.00,227.00 C785.06,227.00 783.88,229.86 780.00,234.26 C777.80,236.76 776.00,239.24 776.00,239.77 C776.00,241.40 770.82,246.00 768.99,246.00 C768.03,246.00 766.73,245.38 766.11,244.63 ZM 380.52 234.02 C375.46,228.43 383.55,213.95 388.80,219.20 C391.05,221.45 390.10,224.72 386.34,227.74 C384.16,229.49 382.97,231.15 383.40,231.84 C384.69,233.92 387.77,233.06 390.45,229.87 C393.38,226.40 394.81,226.56 392.96,230.16 C390.08,235.78 383.86,237.71 380.52,234.02 ZM 465.54 233.70 C464.21,231.67 464.20,230.53 465.47,223.95 C468.25,209.50 468.84,208.00 471.74,208.00 C473.47,208.00 473.30,209.43 470.06,221.88 C467.74,230.82 467.89,234.17 470.51,231.99 C471.33,231.31 472.00,230.14 472.00,229.38 C472.00,228.62 472.45,228.00 473.00,228.00 C474.58,228.00 474.17,229.95 471.93,233.10 C469.44,236.60 467.55,236.78 465.54,233.70 ZM 443.96 225.54 C444.63,224.74 444.88,223.61 444.51,223.02 C444.15,222.44 445.01,220.58 446.43,218.90 C449.74,214.97 449.79,211.32 446.56,209.85 C443.01,208.23 441.68,209.17 439.81,214.63 C436.73,223.59 436.69,224.00 438.73,224.00 C439.76,224.00 441.20,223.44 441.93,222.75 C442.66,222.06 442.47,222.74 441.51,224.25 C440.04,226.58 440.00,227.00 441.26,227.00 C442.08,227.00 443.30,226.34 443.96,225.54 ZM 525.20 234.80 C524.54,234.14 524.00,232.33 524.00,230.79 C524.00,229.24 523.48,227.14 522.84,226.12 C521.89,224.60 522.10,223.67 523.95,221.08 C526.63,217.31 529.62,217.29 529.27,221.03 C529.14,222.39 528.75,225.41 528.41,227.75 C528.00,230.56 528.16,232.00 528.89,232.00 C529.50,232.00 530.00,231.55 530.00,231.00 C530.00,230.45 530.45,230.00 531.00,230.00 C532.63,230.00 532.14,232.56 530.17,234.35 C528.00,236.31 526.82,236.42 525.20,234.80 ZM 754.75 234.92 C753.71,234.31 753.00,232.71 753.00,230.95 C753.00,228.99 752.49,228.00 751.50,228.00 C750.67,228.00 750.00,227.11 750.00,226.00 C750.00,224.90 750.34,224.00 750.75,223.99 C751.16,223.99 752.27,222.64 753.20,220.99 C754.89,218.03 757.32,217.10 758.48,218.97 C758.81,219.50 758.46,222.31 757.70,225.22 C756.17,231.10 756.42,233.16 758.56,232.34 C760.31,231.67 760.45,233.15 758.80,234.80 C757.37,236.23 757.02,236.24 754.75,234.92 ZM 515.50 233.99 C514.62,231.24 515.94,221.47 517.46,219.39 C519.34,216.82 521.24,218.62 520.45,222.22 C520.02,224.17 520.22,225.52 521.00,226.00 C521.95,226.59 521.92,227.61 520.86,230.63 C518.93,236.17 516.64,237.60 515.50,233.99 ZM 745.20 234.80 C742.52,232.12 745.01,218.00 748.16,218.00 C749.70,218.00 749.87,218.89 749.59,225.25 C749.16,235.12 748.01,237.61 745.20,234.80 ZM 857.00 225.50 C856.32,224.68 856.15,224.00 856.63,223.99 C857.11,223.99 857.60,222.20 857.73,220.01 C858.22,211.36 862.59,202.87 864.28,207.28 C864.86,208.80 859.92,227.00 858.92,227.00 C858.55,227.00 857.68,226.32 857.00,225.50 ZM 640.00 229.95 C640.00,228.94 640.45,227.84 641.00,227.50 C641.55,227.16 642.00,225.78 642.00,224.44 C642.00,222.74 641.44,222.00 640.16,222.00 C638.08,222.00 635.32,228.78 636.33,231.41 C637.12,233.47 640.00,232.33 640.00,229.95 ZM 802.75 229.29 C805.07,224.30 803.77,219.16 801.02,222.47 C799.13,224.76 798.44,232.00 800.12,231.99 C800.88,231.99 802.06,230.77 802.75,229.29 ZM 492.70 229.25 C494.68,224.66 495.32,221.00 494.13,221.00 C492.63,221.00 490.33,224.86 489.52,228.75 C488.66,232.89 490.97,233.26 492.70,229.25 ZM 726.00 215.06 C726.00,214.54 726.45,213.84 727.00,213.50 C727.55,213.16 728.00,212.01 728.00,210.94 C728.00,209.87 728.48,209.00 729.06,209.00 C731.39,209.00 728.70,206.99 726.19,206.86 C723.72,206.74 723.69,206.69 725.83,206.28 C730.45,205.40 733.83,211.31 730.57,214.57 C728.96,216.18 726.00,216.50 726.00,215.06 ZM 426.00 215.07 C426.00,212.97 426.83,211.55 428.90,210.07 C432.59,207.44 433.98,207.37 430.86,209.97 L 428.50 211.93 L 430.94 211.97 L 433.37 212.00 L 430.50 215.00 C426.90,218.76 426.00,218.77 426.00,215.07 ZM 779.11 213.09 C777.36,211.98 778.42,207.16 780.60,206.32 C783.35,205.27 784.31,207.50 782.56,210.89 C781.50,212.94 781.13,213.75 780.64,213.83 C780.29,213.89 779.88,213.58 779.11,213.09 ZM 547.01 237.75 C547.05,234.46 548.38,232.00 550.12,232.00 C552.32,232.00 552.57,234.66 550.61,237.25 C549.07,239.28 546.99,239.57 547.01,237.75 ZM 619.06 212.25 C620.99,205.75 619.57,206.18 617.14,212.83 C614.74,219.42 614.22,224.53 616.47,219.50 C617.20,217.85 618.37,214.59 619.06,212.25 ZM 855.67 235.33 C853.58,233.25 856.44,230.42 859.03,232.02 C860.14,232.70 860.14,233.12 859.06,234.42 C857.65,236.13 856.71,236.38 855.67,235.33 ZM 722.25 224.27 C723.21,223.99 724.00,223.37 724.00,222.88 C724.00,221.57 719.59,221.81 718.20,223.20 C716.42,224.98 716.75,226.32 718.75,225.49 C719.71,225.10 721.29,224.55 722.25,224.27 ZM 386.82 223.91 C387.97,222.08 387.91,221.87 386.32,222.18 C385.33,222.37 384.37,223.31 384.19,224.26 C383.73,226.65 385.24,226.45 386.82,223.91 ZM 770.39 242.42 C771.33,239.97 771.13,239.65 769.50,241.00 C767.84,242.38 767.51,244.00 768.89,244.00 C769.38,244.00 770.06,243.29 770.39,242.42 ZM 676.00 229.50 C676.00,228.68 676.45,228.00 677.00,228.00 C677.55,228.00 678.00,228.68 678.00,229.50 C678.00,230.32 677.55,231.00 677.00,231.00 C676.45,231.00 676.00,230.32 676.00,229.50 ZM 760.00 229.50 C760.00,228.68 760.45,228.00 761.00,228.00 C761.55,228.00 762.00,228.68 762.00,229.50 C762.00,230.32 761.55,231.00 761.00,231.00 C760.45,231.00 760.00,230.32 760.00,229.50 ZM 827.75 241.42 C826.80,240.46 824.89,242.01 825.60,243.16 C826.02,243.84 826.58,243.82 827.30,243.10 C827.88,242.52 828.09,241.76 827.75,241.42 Z" fill="rgba(25,24,28,1)"/>
<path d="M 536.36 177.45 C526.76,166.94 528.20,150.78 540.38,132.29 C553.17,112.87 576.50,94.09 604.50,80.67 C604.93,80.47 605.36,80.26 605.80,80.05 C604.04,81.09 603.24,81.91 603.67,82.34 C604.03,82.70 603.86,83.00 603.29,83.00 C602.72,83.00 602.25,84.12 602.25,85.50 C602.25,86.88 602.39,88.00 602.55,88.00 C602.67,88.00 604.73,87.02 607.65,85.59 C604.82,87.05 602.09,88.52 599.50,90.01 C597.30,91.27 593.80,93.23 591.72,94.36 C589.64,95.48 583.74,99.58 578.61,103.45 C565.50,113.37 564.00,114.64 564.00,115.89 C564.00,116.50 563.57,117.00 563.03,117.00 C561.34,117.00 548.23,130.76 544.23,136.74 C537.66,146.56 534.03,156.15 534.01,163.76 C534.00,168.42 537.02,175.80 540.06,178.56 C542.03,180.34 542.61,182.01 541.25,181.99 C540.84,181.99 538.64,179.94 536.36,177.45 ZM 727.73 44.43 C726.46,44.80 724.74,45.37 723.00,46.00 C719.99,47.10 717.43,48.00 717.30,48.00 C717.18,48.00 716.54,49.81 715.87,52.03 C714.59,56.31 714.84,57.89 718.35,57.87 C715.42,58.28 712.19,58.71 709.50,59.04 C704.55,59.65 699.84,60.50 699.04,60.91 C698.24,61.33 696.69,63.88 695.60,66.58 C693.57,71.60 692.23,72.99 688.25,74.16 C685.16,75.08 684.77,73.91 686.51,68.97 C688.87,62.29 688.05,57.20 683.66,51.22 C679.75,45.90 679.61,44.00 683.12,44.00 C686.23,44.00 689.17,45.84 693.14,50.27 C696.49,54.02 696.99,54.26 699.64,53.29 C701.21,52.71 705.88,51.22 710.00,49.98 C714.12,48.74 720.00,46.88 723.07,45.86 C724.78,45.29 726.48,44.77 727.73,44.43 ZM 731.52 12.34 C730.56,11.45 730.37,11.77 730.27,13.02 C730.19,14.14 728.75,16.80 727.07,18.91 C725.49,20.91 724.77,21.94 724.72,22.67 C720.70,16.75 715.77,9.98 715.02,9.51 C714.46,9.16 714.00,8.23 714.00,7.44 C714.00,6.35 715.43,6.00 719.88,6.00 C725.70,6.00 725.81,6.06 730.52,11.24 C730.85,11.60 731.18,11.97 731.52,12.34 ZM 725.79 24.25 C726.65,25.08 727.91,26.87 728.70,28.43 C729.30,29.59 730.65,31.60 732.13,33.59 C730.65,31.64 729.24,29.65 728.50,28.45 C727.77,27.26 726.83,25.81 725.79,24.25 ZM 745.62 24.11 C744.38,22.95 742.44,22.00 741.30,22.00 C740.16,22.00 738.54,20.99 737.69,19.75 C737.51,19.48 737.27,19.16 737.00,18.80 C737.13,18.96 737.24,19.11 737.33,19.24 C738.46,20.76 740.27,22.00 741.37,22.00 C742.47,22.00 744.38,22.95 745.62,24.11 ZM 614.57 76.07 C615.61,75.62 616.45,75.28 617.00,75.08 C618.92,74.37 621.40,73.42 622.50,72.96 C623.73,72.45 625.31,71.87 627.10,71.26 C625.30,71.87 623.73,72.46 622.50,72.97 C621.41,73.43 617.85,74.82 614.57,76.07 ZM 734.30 36.33 L 738.12 40.92 L 738.08 40.94 L 734.30 36.33 ZM 735.47 56.00 L 735.52 56.00 C738.50,56.00 739.53,56.14 739.85,57.05 C739.53,56.14 738.50,56.00 735.47,56.00 Z" fill="rgba(142,108,30,1)"/>
<path d="M 739.83 56.98 C739.48,56.13 738.43,56.00 735.52,56.00 C733.05,56.00 727.88,56.54 724.02,57.20 C715.26,58.71 714.09,57.97 715.87,52.03 C716.54,49.81 717.18,48.00 717.30,48.00 C717.43,48.00 719.99,47.10 723.00,46.00 C726.01,44.90 728.99,44.00 729.61,44.00 C730.24,44.00 732.41,43.31 734.44,42.46 L 738.12 40.92 L 734.20 36.21 C732.04,33.62 729.57,30.12 728.70,28.43 C727.84,26.74 726.43,24.77 725.57,24.06 C724.19,22.91 724.36,22.34 727.07,18.91 C728.75,16.80 730.19,14.14 730.27,13.02 C730.41,11.21 730.75,11.35 733.29,14.24 C734.86,16.03 736.84,18.51 737.69,19.75 C738.54,20.99 740.16,22.00 741.30,22.00 C742.44,22.00 744.38,22.95 745.62,24.11 C747.47,25.85 747.67,26.56 746.72,28.07 C745.77,29.60 746.10,30.55 748.66,33.70 C751.44,37.13 752.17,37.48 756.12,37.32 C757.90,37.25 760.92,36.93 763.71,36.55 C753.86,38.14 752.84,38.11 751.55,37.04 C749.12,35.02 746.56,37.43 743.06,45.02 C740.92,49.66 739.79,53.63 739.83,56.33 C739.83,56.54 739.83,56.75 739.83,56.98 ZM 602.25 85.50 C602.25,84.12 602.72,83.00 603.29,83.00 C603.86,83.00 604.03,82.70 603.67,82.34 C602.77,81.44 607.23,78.87 614.50,76.10 C617.80,74.84 621.40,73.43 622.50,72.97 C626.80,71.17 635.41,68.53 642.91,66.62 C642.08,67.11 641.52,67.75 641.13,68.62 C639.81,71.52 640.10,71.53 648.12,68.94 C654.65,66.83 660.99,65.26 666.76,64.31 C668.48,64.03 670.16,63.37 670.60,62.82 C670.59,62.85 670.58,62.87 670.57,62.89 C670.27,63.38 668.55,64.02 666.76,64.31 C652.33,66.68 629.97,74.50 611.87,83.51 C606.91,85.98 602.72,88.00 602.55,88.00 C602.39,88.00 602.25,86.88 602.25,85.50 ZM 653.32 64.31 C655.70,63.82 658.19,63.29 659.76,62.94 C663.82,62.05 668.29,61.81 669.96,62.24 C668.02,61.97 662.49,62.58 655.50,63.90 C654.84,64.03 654.10,64.17 653.32,64.31 Z" fill="rgba(176,136,26,1)"/>
<path d="M 730.24 95.25 C730.83,91.71 736.71,69.92 738.51,64.59 C739.27,62.34 739.87,58.62 739.83,56.33 C739.79,53.63 740.92,49.66 743.06,45.02 C746.56,37.43 749.12,35.02 751.55,37.04 C752.96,38.21 754.03,38.14 766.50,36.09 C779.17,34.01 784.66,33.73 788.40,34.97 C793.09,36.51 792.81,38.48 787.50,41.41 C782.47,44.19 764.39,50.01 760.82,50.01 C757.42,50.00 755.35,52.07 754.04,56.78 C752.68,61.68 752.73,62.53 754.44,63.95 C756.21,65.42 754.69,69.57 752.13,70.28 C751.15,70.55 749.16,74.30 747.17,79.61 C745.33,84.50 743.36,89.74 742.79,91.25 C742.22,92.76 741.34,94.00 740.83,94.00 C740.32,94.00 738.04,94.90 735.76,96.00 C730.34,98.62 729.68,98.53 730.24,95.25 ZM 641.13 68.62 C641.92,66.89 643.35,66.05 646.36,65.54 C648.64,65.16 652.75,64.42 655.50,63.90 C664.67,62.17 671.33,61.66 670.65,62.75 C670.30,63.32 668.55,64.02 666.76,64.31 C660.99,65.26 654.65,66.83 648.12,68.94 C640.10,71.53 639.81,71.52 641.13,68.62 Z" fill="rgba(201,155,29,1)"/>
</g>
</svg>