<svg xmlns="http://www.w3.org/2000/svg" xmlns:v="https://svgstorm.com"
viewBox = "0 0 300 49"
width="300"
height="49">
<g fill="None" fill-opacity="0.0" stroke="#000000" stroke-opacity="0.00" stroke-width="0.3"><path d="
M 0.00 49.00 
L 300.00 49.00
L 300.00 0.00
L 0.00 0.00
L 0.00 49.00
M 113.00 5.00 
C 117.10 5.94 116.22 12.81 110.99 11.99 C 105.76 11.17 108.52 3.97 113.00 5.00
M 191.00 5.00 
C 190.40 11.61 191.41 18.79 191.99 25.01 C 192.57 31.22 193.04 39.51 185.00 37.00
C 185.17 31.16 184.78 23.67 185.00 18.00 C 185.22 12.33 182.63 3.40 191.00 5.00
M 200.00 5.00 
C 204.10 5.94 203.22 12.81 197.99 11.99 C 192.76 11.17 195.52 3.97 200.00 5.00
M 227.00 6.00 
C 230.14 9.14 227.12 16.49 228.00 21.00 C 228.88 25.51 227.34 32.29 228.00 37.00
C 225.10 37.75 222.39 35.73 220.00 37.00
C 211.59 38.03 205.21 35.79 205.00 26.00 C 204.79 16.20 213.70 12.73 222.00 16.00
C 222.00 12.33 222.00 8.67 222.00 5.00
C 223.57 5.39 226.22 4.06 227.00 6.00
M 13.00 33.00 
C 12.98 33.50 13.08 34.51 13.00 35.00
C 12.46 38.36 8.67 36.52 6.00 37.00
C 8.27 30.21 2.19 12.58 7.75 7.75 C 13.32 2.93 27.31 4.65 29.77 13.23 C 32.23 21.81 19.67 27.67 12.00 26.00
C 12.56 28.24 13.38 30.48 13.00 33.00
M 137.00 18.00 
C 141.10 17.63 145.90 17.63 150.00 18.00
C 150.00 16.67 150.00 15.33 150.00 14.00
C 150.00 12.39 149.77 10.59 150.00 9.00
C 150.21 7.57 150.00 7.88 151.00 7.00
C 157.08 1.68 157.82 13.33 157.00 18.00 C 156.18 22.67 157.62 31.91 157.00 37.00
C 147.57 39.96 150.24 29.87 150.00 24.00
C 145.67 24.00 141.33 24.00 137.00 24.00
C 137.00 28.33 137.00 32.67 137.00 37.00
C 128.65 40.52 130.66 28.37 131.00 23.00 C 131.34 17.63 127.87 5.27 136.00 6.00
C 138.24 7.39 137.00 15.43 137.00 18.00
M 92.00 19.00 
C 91.14 16.74 91.20 14.49 95.00 15.00
C 95.00 13.33 95.00 11.67 95.00 10.00
C 96.55 8.57 98.81 9.05 101.00 9.00
C 100.16 12.93 101.36 16.33 106.00 15.00
C 107.10 18.89 104.85 20.97 101.00 20.00
C 101.50 25.22 98.62 32.94 106.00 33.00
C 107.07 38.47 99.90 38.76 96.75 35.25 C 93.61 31.73 95.48 24.65 95.00 20.00
C 94.00 19.89 92.27 20.47 92.00 19.00
M 46.00 20.00 
C 36.32 18.81 37.94 30.55 38.00 37.00
C 26.73 38.53 34.11 21.95 32.00 15.00
C 36.81 16.91 46.84 11.56 46.00 20.00
M 53.00 28.00 
C 52.96 28.00 53.00 29.00 53.00 29.00
C 53.66 35.52 70.19 27.69 65.74 34.74 C 61.29 41.79 50.82 37.74 47.70 32.30 C 44.57 26.86 45.89 16.48 54.08 15.08 C 62.27 13.68 69.61 19.01 68.00 28.00
C 63.00 28.00 58.00 28.00 53.00 28.00
M 92.00 26.00 
C 91.98 27.05 92.06 27.58 91.00 28.00
C 86.69 29.72 80.49 26.71 76.00 28.00
C 78.00 37.17 85.81 27.77 91.00 31.00
C 86.70 43.37 66.73 36.93 69.00 24.00 C 71.28 11.07 92.23 12.51 92.00 26.00
M 115.00 15.00 
C 115.00 22.33 115.00 29.67 115.00 37.00
C 107.14 39.48 109.00 30.99 109.00 26.00 C 109.00 21.01 107.10 12.58 115.00 15.00
M 176.00 15.00 
C 189.58 19.12 180.86 43.26 166.93 37.07 C 153.00 30.89 160.44 10.28 176.00 15.00
M 202.00 15.00 
C 202.00 22.33 202.00 29.67 202.00 37.00
C 194.14 39.48 196.00 30.99 196.00 26.00 C 196.00 21.01 194.10 12.58 202.00 15.00
M 250.00 37.00 
C 243.71 34.35 235.42 42.01 230.75 34.25 C 226.09 26.48 238.43 22.59 244.00 23.00
C 240.93 15.30 236.08 25.67 231.00 22.00
C 231.42 15.39 241.29 12.12 246.74 16.26 C 252.19 20.39 249.32 30.87 250.00 37.00
M 259.00 37.00 
C 259.01 36.59 258.17 35.41 258.00 35.00
C 255.33 28.54 252.61 21.84 251.00 15.00
C 260.06 12.44 258.11 24.40 263.00 28.00
C 264.80 22.34 265.53 12.49 274.00 15.00
C 271.14 20.54 269.60 27.25 266.69 32.69 C 263.79 38.13 263.31 47.88 255.00 46.00
C 256.50 43.10 257.06 39.40 259.00 37.00
M 281.00 21.00 
C 280.75 21.21 281.00 22.00 281.00 22.00
C 284.41 24.04 295.76 26.50 292.67 32.67 C 289.58 38.84 281.88 40.92 276.31 35.69 C 270.73 30.47 281.93 29.86 286.00 32.00
C 285.50 27.21 273.59 28.08 274.08 21.92 C 274.56 15.77 283.10 11.62 289.07 15.93 C 295.05 20.23 285.50 22.08 281.00 21.00
M 59.00 30.00 
C 57.09 32.49 55.02 29.19 59.00 30.00 Z"/>
</g>
<g fill="None" fill-opacity="0.0" stroke="#3A9FD4" stroke-opacity="0.69" stroke-width="0.3"><path d="
M 113.00 5.00 
C 108.52 3.97 105.76 11.17 110.99 11.99 C 116.22 12.81 117.10 5.94 113.00 5.00 Z"/>
</g>
<g fill="None" fill-opacity="0.0" stroke="#4680DB" stroke-opacity="0.74" stroke-width="0.3"><path d="
M 191.00 5.00 
C 182.63 3.40 185.22 12.33 185.00 18.00 C 184.78 23.67 185.17 31.16 185.00 37.00
C 193.04 39.51 192.57 31.22 191.99 25.01 C 191.41 18.79 190.40 11.61 191.00 5.00 Z"/>
</g>
<g fill="None" fill-opacity="0.0" stroke="#4979C8" stroke-opacity="0.67" stroke-width="0.3"><path d="
M 200.00 5.00 
C 195.52 3.97 192.76 11.17 197.99 11.99 C 203.22 12.81 204.10 5.94 200.00 5.00 Z"/>
</g>
<g fill="None" fill-opacity="0.0" stroke="#4A74E0" stroke-opacity="0.81" stroke-width="0.3"><path d="
M 220.00 37.00 
C 221.51 36.50 223.31 33.38 226.00 35.00
C 226.66 25.50 224.67 14.68 227.00 6.00
C 226.22 4.06 223.57 5.39 222.00 5.00
C 222.00 8.67 222.00 12.33 222.00 16.00
C 213.70 12.73 204.79 16.20 205.00 26.00 C 205.21 35.79 211.59 38.03 220.00 37.00
M 212.00 28.00 
C 209.60 27.88 209.34 25.35 211.00 24.00
C 211.16 23.77 212.00 24.00 212.00 24.00
C 213.50 17.66 220.58 19.89 221.00 26.00 C 221.41 32.12 212.42 34.79 212.00 28.00 Z"/>
</g>
<g fill="None" fill-opacity="0.0" stroke="#25CDED" stroke-opacity="0.81" stroke-width="0.3"><path d="
M 13.00 35.00 
C 12.13 36.51 13.10 32.08 13.00 33.00
C 13.38 30.48 12.56 28.24 12.00 26.00
C 19.67 27.67 32.23 21.81 29.77 13.23 C 27.31 4.65 13.32 2.93 7.75 7.75 C 2.19 12.58 8.27 30.21 6.00 37.00
C 8.67 36.52 12.46 38.36 13.00 35.00
M 12.00 20.00 
C 12.00 17.00 12.00 14.00 12.00 11.00
C 25.43 6.60 25.61 24.63 12.00 20.00 Z"/>
</g>
<g fill="None" fill-opacity="0.0" stroke="#3F96E3" stroke-opacity="0.81" stroke-width="0.3"><path d="
M 151.00 7.00 
C 151.42 6.48 149.83 9.56 150.00 9.00
C 149.77 10.59 150.00 12.39 150.00 14.00
C 150.16 15.23 151.63 17.04 151.00 19.00
C 149.12 20.95 138.84 20.84 137.00 19.00
C 134.14 16.25 137.07 9.67 136.00 6.00
C 127.87 5.27 131.34 17.63 131.00 23.00 C 130.66 28.37 128.65 40.52 137.00 37.00
C 137.00 32.67 137.00 28.33 137.00 24.00
C 141.33 24.00 145.67 24.00 150.00 24.00
C 150.24 29.87 147.57 39.96 157.00 37.00
C 157.62 31.91 156.18 22.67 157.00 18.00 C 157.82 13.33 157.08 1.68 151.00 7.00 Z"/>
</g>
<g fill="None" fill-opacity="0.0" stroke="#509ACC" stroke-opacity="0.59" stroke-width="0.3"><path d="
M 137.00 19.00 
C 136.96 19.00 137.00 18.00 137.00 18.00
C 137.00 15.43 138.24 7.39 136.00 6.00
C 137.07 9.67 134.14 16.25 137.00 19.00 Z"/>
</g>
<g fill="None" fill-opacity="0.0" stroke="#4668D2" stroke-opacity="0.48" stroke-width="0.3"><path d="
M 220.00 37.00 
C 222.39 35.73 225.10 37.75 228.00 37.00
C 227.34 32.29 228.88 25.51 228.00 21.00 C 227.12 16.49 230.14 9.14 227.00 6.00
C 224.67 14.68 226.66 25.50 226.00 35.00
C 223.31 33.38 221.51 36.50 220.00 37.00 Z"/>
</g>
<g fill="None" fill-opacity="0.0" stroke="#6F9594" stroke-opacity="0.01" stroke-width="0.3"><path d="
M 150.00 9.00 
C 149.83 9.56 151.42 6.48 151.00 7.00
C 150.00 7.88 150.21 7.57 150.00 9.00 Z"/>
</g>
<g fill="None" fill-opacity="0.0" stroke="#34A8E4" stroke-opacity="0.82" stroke-width="0.3"><path d="
M 95.00 10.00 
C 98.38 13.48 93.21 16.38 92.00 19.00
C 92.27 20.47 94.00 19.89 95.00 20.00
C 95.48 24.65 93.61 31.73 96.75 35.25 C 99.90 38.76 107.07 38.47 106.00 33.00
C 98.62 32.94 101.50 25.22 101.00 20.00
C 104.85 20.97 107.10 18.89 106.00 15.00
C 101.36 16.33 100.16 12.93 101.00 9.00
C 98.81 9.05 96.55 8.57 95.00 10.00 Z"/>
</g>
<g fill="None" fill-opacity="0.0" stroke="#4FB4DA" stroke-opacity="0.56" stroke-width="0.3"><path d="
M 92.00 19.00 
C 93.21 16.38 98.38 13.48 95.00 10.00
C 95.00 11.67 95.00 13.33 95.00 15.00
C 91.20 14.49 91.14 16.74 92.00 19.00 Z"/>
</g>
<g fill="None" fill-opacity="0.0" stroke="#000000" stroke-opacity="0.00" stroke-width="0.3"><path d="
M 12.00 20.00 
C 25.61 24.63 25.43 6.60 12.00 11.00
C 12.00 14.00 12.00 17.00 12.00 20.00 Z"/>
</g>
<g fill="None" fill-opacity="0.0" stroke="#3892CD" stroke-opacity="0.04" stroke-width="0.3"><path d="
M 150.00 18.00 
C 150.00 18.50 150.00 19.00 150.00 19.00
C 150.50 19.00 151.00 19.00 151.00 19.00
C 151.63 17.04 150.16 15.23 150.00 14.00
C 150.00 15.33 150.00 16.67 150.00 18.00 Z"/>
</g>
<g fill="None" fill-opacity="0.0" stroke="#28C5EB" stroke-opacity="0.79" stroke-width="0.3"><path d="
M 46.00 20.00 
C 46.84 11.56 36.81 16.91 32.00 15.00
C 34.11 21.95 26.73 38.53 38.00 37.00
C 37.94 30.55 36.32 18.81 46.00 20.00 Z"/>
</g>
<g fill="None" fill-opacity="0.0" stroke="#28BBE9" stroke-opacity="0.82" stroke-width="0.3"><path d="
M 53.00 29.00 
C 49.86 28.26 52.42 28.06 53.00 28.00
C 58.00 28.00 63.00 28.00 68.00 28.00
C 69.61 19.01 62.27 13.68 54.08 15.08 C 45.89 16.48 44.57 26.86 47.70 32.30 C 50.82 37.74 61.29 41.79 65.74 34.74 C 70.19 27.69 53.66 35.52 53.00 29.00
M 61.00 24.00 
C 58.18 24.16 51.41 24.78 54.26 21.25 C 57.11 17.73 60.68 21.20 61.00 24.00 Z"/>
</g>
<g fill="None" fill-opacity="0.0" stroke="#2CB1E6" stroke-opacity="0.83" stroke-width="0.3"><path d="
M 91.00 28.00 
C 90.09 28.56 92.13 25.20 92.00 26.00
C 92.23 12.51 71.28 11.07 69.00 24.00 C 66.73 36.93 86.70 43.37 91.00 31.00
C 85.81 27.77 78.00 37.17 76.00 28.00
C 80.49 26.71 86.69 29.72 91.00 28.00
M 85.00 24.00 
C 82.00 24.00 79.00 24.00 76.00 24.00
C 75.86 18.66 85.14 18.65 85.00 24.00 Z"/>
</g>
<g fill="None" fill-opacity="0.0" stroke="#3BA2E0" stroke-opacity="0.77" stroke-width="0.3"><path d="
M 115.00 15.00 
C 107.10 12.58 109.00 21.01 109.00 26.00 C 109.00 30.99 107.14 39.48 115.00 37.00
C 115.00 29.67 115.00 22.33 115.00 15.00 Z"/>
</g>
<g fill="None" fill-opacity="0.0" stroke="#458BE2" stroke-opacity="0.78" stroke-width="0.3"><path d="
M 176.00 15.00 
C 160.44 10.28 153.00 30.89 166.93 37.07 C 180.86 43.26 189.58 19.12 176.00 15.00
M 173.00 20.00 
C 178.71 21.87 176.09 34.44 169.75 32.20 C 163.42 29.96 165.46 17.53 173.00 20.00 Z"/>
</g>
<g fill="None" fill-opacity="0.0" stroke="#467BDE" stroke-opacity="0.76" stroke-width="0.3"><path d="
M 202.00 15.00 
C 194.10 12.58 196.00 21.01 196.00 26.00 C 196.00 30.99 194.14 39.48 202.00 37.00
C 202.00 29.67 202.00 22.33 202.00 15.00 Z"/>
</g>
<g fill="None" fill-opacity="0.0" stroke="#4A65DD" stroke-opacity="0.75" stroke-width="0.3"><path d="
M 250.00 37.00 
C 249.32 30.87 252.19 20.39 246.74 16.26 C 241.29 12.12 231.42 15.39 231.00 22.00
C 236.08 25.67 240.93 15.30 244.00 23.00
C 238.43 22.59 226.09 26.48 230.75 34.25 C 235.42 42.01 243.71 34.35 250.00 37.00
M 244.00 28.00 
C 243.73 32.39 236.23 35.43 237.00 29.00
C 239.49 29.29 241.39 27.36 244.00 28.00 Z"/>
</g>
<g fill="None" fill-opacity="0.0" stroke="#535FD7" stroke-opacity="0.73" stroke-width="0.3"><path d="
M 258.00 35.00 
C 259.03 36.76 259.41 35.26 259.00 37.00
C 257.06 39.40 256.50 43.10 255.00 46.00
C 263.31 47.88 263.79 38.13 266.69 32.69 C 269.60 27.25 271.14 20.54 274.00 15.00
C 265.53 12.49 264.80 22.34 263.00 28.00
C 258.11 24.40 260.06 12.44 251.00 15.00
C 252.61 21.84 255.33 28.54 258.00 35.00 Z"/>
</g>
<g fill="None" fill-opacity="0.0" stroke="#5050D6" stroke-opacity="0.69" stroke-width="0.3"><path d="
M 281.00 22.00 
C 278.65 20.56 281.27 20.91 281.00 21.00
C 285.50 22.08 295.05 20.23 289.07 15.93 C 283.10 11.62 274.56 15.77 274.08 21.92 C 273.59 28.08 285.50 27.21 286.00 32.00
C 281.93 29.86 270.73 30.47 276.31 35.69 C 281.88 40.92 289.58 38.84 292.67 32.67 C 295.76 26.50 284.41 24.04 281.00 22.00 Z"/>
</g>
<g fill="None" fill-opacity="0.0" stroke="#141429" stroke-opacity="0.05" stroke-width="0.3"><path d="
M 137.00 19.00 
C 141.25 19.38 145.73 19.00 150.00 19.00
C 150.00 19.00 150.00 18.50 150.00 18.00
C 145.90 17.63 141.10 17.63 137.00 18.00
C 137.00 18.00 136.96 19.00 137.00 19.00 Z"/>
</g>
<g fill="None" fill-opacity="0.0" stroke="#4193D9" stroke-opacity="0.40" stroke-width="0.3"><path d="
M 151.00 19.00 
C 151.00 19.00 150.50 19.00 150.00 19.00
C 145.73 19.00 141.25 19.38 137.00 19.00
C 138.84 20.84 149.12 20.95 151.00 19.00 Z"/>
</g>
<g fill="None" fill-opacity="0.0" stroke="#000102" stroke-opacity="0.05" stroke-width="0.3"><path d="
M 61.00 24.00 
C 60.68 21.20 57.11 17.73 54.26 21.25 C 51.41 24.78 58.18 24.16 61.00 24.00 Z"/>
</g>
<g fill="None" fill-opacity="0.0" stroke="#000102" stroke-opacity="0.05" stroke-width="0.3"><path d="
M 85.00 24.00 
C 85.14 18.65 75.86 18.66 76.00 24.00
C 79.00 24.00 82.00 24.00 85.00 24.00 Z"/>
</g>
<g fill="None" fill-opacity="0.0" stroke="#000000" stroke-opacity="0.00" stroke-width="0.3"><path d="
M 173.00 20.00 
C 165.46 17.53 163.42 29.96 169.75 32.20 C 176.09 34.44 178.71 21.87 173.00 20.00 Z"/>
</g>
<g fill="None" fill-opacity="0.0" stroke="#000000" stroke-opacity="0.00" stroke-width="0.3"><path d="
M 212.00 24.00 
C 212.26 24.24 212.00 26.61 212.00 27.00
C 212.00 27.50 212.00 28.00 212.00 28.00
C 212.42 34.79 221.41 32.12 221.00 26.00 C 220.58 19.89 213.50 17.66 212.00 24.00 Z"/>
</g>
<g fill="None" fill-opacity="0.0" stroke="#5A58D9" stroke-opacity="0.40" stroke-width="0.3"><path d="
M 281.00 22.00 
C 281.00 22.00 280.75 21.21 281.00 21.00
C 281.27 20.91 278.65 20.56 281.00 22.00 Z"/>
</g>
<g fill="None" fill-opacity="0.0" stroke="#4B7ADE" stroke-opacity="0.63" stroke-width="0.3"><path d="
M 212.00 28.00 
C 212.00 28.00 212.00 27.50 212.00 27.00
C 211.50 26.46 210.30 25.04 211.00 24.00
C 209.34 25.35 209.60 27.88 212.00 28.00 Z"/>
</g>
<g fill="None" fill-opacity="0.0" stroke="#427CBD" stroke-opacity="0.02" stroke-width="0.3"><path d="
M 212.00 27.00 
C 212.00 26.61 212.26 24.24 212.00 24.00
C 212.00 24.00 211.16 23.77 211.00 24.00
C 210.30 25.04 211.50 26.46 212.00 27.00 Z"/>
</g>
<g fill="None" fill-opacity="0.0" stroke="#808080" stroke-opacity="0.01" stroke-width="0.3"><path d="
M 91.00 28.00 
C 92.06 27.58 91.98 27.05 92.00 26.00
C 92.13 25.20 90.09 28.56 91.00 28.00 Z"/>
</g>
<g fill="None" fill-opacity="0.0" stroke="#2CC4EA" stroke-opacity="0.61" stroke-width="0.3"><path d="
M 53.00 29.00 
C 53.00 29.00 52.96 28.00 53.00 28.00
C 52.42 28.06 49.86 28.26 53.00 29.00 Z"/>
</g>
<g fill="None" fill-opacity="0.0" stroke="#000000" stroke-opacity="0.02" stroke-width="0.3"><path d="
M 244.00 28.00 
C 241.39 27.36 239.49 29.29 237.00 29.00
C 236.23 35.43 243.73 32.39 244.00 28.00 Z"/>
</g>
<g fill="None" fill-opacity="0.0" stroke="#00FFFF" stroke-opacity="0.00" stroke-width="0.3"><path d="
M 59.00 30.00 
C 55.02 29.19 57.09 32.49 59.00 30.00 Z"/>
</g>
<g fill="None" fill-opacity="0.0" stroke="#8080FF" stroke-opacity="0.01" stroke-width="0.3"><path d="
M 13.00 35.00 
C 13.08 34.51 12.98 33.50 13.00 33.00
C 13.10 32.08 12.13 36.51 13.00 35.00 Z"/>
</g>
<g fill="None" fill-opacity="0.0" stroke="#6776AF" stroke-opacity="0.28" stroke-width="0.3"><path d="
M 259.00 37.00 
C 259.41 35.26 259.03 36.76 258.00 35.00
C 258.17 35.41 259.01 36.59 259.00 37.00 Z"/>
</g>
<g fill="#000000" fill-opacity="0.00" stroke="None">
<path d="
M 0.00 49.00 
L 300.00 49.00
L 300.00 0.00
L 0.00 0.00
L 0.00 49.00
M 113.00 5.00 
C 117.10 5.94 116.22 12.81 110.99 11.99 C 105.76 11.17 108.52 3.97 113.00 5.00
M 191.00 5.00 
C 190.40 11.61 191.41 18.79 191.99 25.01 C 192.57 31.22 193.04 39.51 185.00 37.00
C 185.17 31.16 184.78 23.67 185.00 18.00 C 185.22 12.33 182.63 3.40 191.00 5.00
M 200.00 5.00 
C 204.10 5.94 203.22 12.81 197.99 11.99 C 192.76 11.17 195.52 3.97 200.00 5.00
M 227.00 6.00 
C 230.14 9.14 227.12 16.49 228.00 21.00 C 228.88 25.51 227.34 32.29 228.00 37.00
C 225.10 37.75 222.39 35.73 220.00 37.00
C 211.59 38.03 205.21 35.79 205.00 26.00 C 204.79 16.20 213.70 12.73 222.00 16.00
C 222.00 12.33 222.00 8.67 222.00 5.00
C 223.57 5.39 226.22 4.06 227.00 6.00
M 13.00 33.00 
C 12.98 33.50 13.08 34.51 13.00 35.00
C 12.46 38.36 8.67 36.52 6.00 37.00
C 8.27 30.21 2.19 12.58 7.75 7.75 C 13.32 2.93 27.31 4.65 29.77 13.23 C 32.23 21.81 19.67 27.67 12.00 26.00
C 12.56 28.24 13.38 30.48 13.00 33.00
M 137.00 18.00 
C 141.10 17.63 145.90 17.63 150.00 18.00
C 150.00 16.67 150.00 15.33 150.00 14.00
C 150.00 12.39 149.77 10.59 150.00 9.00
C 150.21 7.57 150.00 7.88 151.00 7.00
C 157.08 1.68 157.82 13.33 157.00 18.00 C 156.18 22.67 157.62 31.91 157.00 37.00
C 147.57 39.96 150.24 29.87 150.00 24.00
C 145.67 24.00 141.33 24.00 137.00 24.00
C 137.00 28.33 137.00 32.67 137.00 37.00
C 128.65 40.52 130.66 28.37 131.00 23.00 C 131.34 17.63 127.87 5.27 136.00 6.00
C 138.24 7.39 137.00 15.43 137.00 18.00
M 92.00 19.00 
C 91.14 16.74 91.20 14.49 95.00 15.00
C 95.00 13.33 95.00 11.67 95.00 10.00
C 96.55 8.57 98.81 9.05 101.00 9.00
C 100.16 12.93 101.36 16.33 106.00 15.00
C 107.10 18.89 104.85 20.97 101.00 20.00
C 101.50 25.22 98.62 32.94 106.00 33.00
C 107.07 38.47 99.90 38.76 96.75 35.25 C 93.61 31.73 95.48 24.65 95.00 20.00
C 94.00 19.89 92.27 20.47 92.00 19.00
M 46.00 20.00 
C 36.32 18.81 37.94 30.55 38.00 37.00
C 26.73 38.53 34.11 21.95 32.00 15.00
C 36.81 16.91 46.84 11.56 46.00 20.00
M 53.00 28.00 
C 52.96 28.00 53.00 29.00 53.00 29.00
C 53.66 35.52 70.19 27.69 65.74 34.74 C 61.29 41.79 50.82 37.74 47.70 32.30 C 44.57 26.86 45.89 16.48 54.08 15.08 C 62.27 13.68 69.61 19.01 68.00 28.00
C 63.00 28.00 58.00 28.00 53.00 28.00
M 92.00 26.00 
C 91.98 27.05 92.06 27.58 91.00 28.00
C 86.69 29.72 80.49 26.71 76.00 28.00
C 78.00 37.17 85.81 27.77 91.00 31.00
C 86.70 43.37 66.73 36.93 69.00 24.00 C 71.28 11.07 92.23 12.51 92.00 26.00
M 115.00 15.00 
C 115.00 22.33 115.00 29.67 115.00 37.00
C 107.14 39.48 109.00 30.99 109.00 26.00 C 109.00 21.01 107.10 12.58 115.00 15.00
M 176.00 15.00 
C 189.58 19.12 180.86 43.26 166.93 37.07 C 153.00 30.89 160.44 10.28 176.00 15.00
M 202.00 15.00 
C 202.00 22.33 202.00 29.67 202.00 37.00
C 194.14 39.48 196.00 30.99 196.00 26.00 C 196.00 21.01 194.10 12.58 202.00 15.00
M 250.00 37.00 
C 243.71 34.35 235.42 42.01 230.75 34.25 C 226.09 26.48 238.43 22.59 244.00 23.00
C 240.93 15.30 236.08 25.67 231.00 22.00
C 231.42 15.39 241.29 12.12 246.74 16.26 C 252.19 20.39 249.32 30.87 250.00 37.00
M 259.00 37.00 
C 259.01 36.59 258.17 35.41 258.00 35.00
C 255.33 28.54 252.61 21.84 251.00 15.00
C 260.06 12.44 258.11 24.40 263.00 28.00
C 264.80 22.34 265.53 12.49 274.00 15.00
C 271.14 20.54 269.60 27.25 266.69 32.69 C 263.79 38.13 263.31 47.88 255.00 46.00
C 256.50 43.10 257.06 39.40 259.00 37.00
M 281.00 21.00 
C 280.75 21.21 281.00 22.00 281.00 22.00
C 284.41 24.04 295.76 26.50 292.67 32.67 C 289.58 38.84 281.88 40.92 276.31 35.69 C 270.73 30.47 281.93 29.86 286.00 32.00
C 285.50 27.21 273.59 28.08 274.08 21.92 C 274.56 15.77 283.10 11.62 289.07 15.93 C 295.05 20.23 285.50 22.08 281.00 21.00
M 59.00 30.00 
C 57.09 32.49 55.02 29.19 59.00 30.00 Z"/>
</g>
<g fill="#3A9FD4" fill-opacity="0.69" stroke="None">
<path d="
M 113.00 5.00 
C 108.52 3.97 105.76 11.17 110.99 11.99 C 116.22 12.81 117.10 5.94 113.00 5.00 Z"/>
</g>
<g fill="#4680DB" fill-opacity="0.74" stroke="None">
<path d="
M 191.00 5.00 
C 182.63 3.40 185.22 12.33 185.00 18.00 C 184.78 23.67 185.17 31.16 185.00 37.00
C 193.04 39.51 192.57 31.22 191.99 25.01 C 191.41 18.79 190.40 11.61 191.00 5.00 Z"/>
</g>
<g fill="#4979C8" fill-opacity="0.67" stroke="None">
<path d="
M 200.00 5.00 
C 195.52 3.97 192.76 11.17 197.99 11.99 C 203.22 12.81 204.10 5.94 200.00 5.00 Z"/>
</g>
<g fill="#4A74E0" fill-opacity="0.81" stroke="None">
<path d="
M 220.00 37.00 
C 221.51 36.50 223.31 33.38 226.00 35.00
C 226.66 25.50 224.67 14.68 227.00 6.00
C 226.22 4.06 223.57 5.39 222.00 5.00
C 222.00 8.67 222.00 12.33 222.00 16.00
C 213.70 12.73 204.79 16.20 205.00 26.00 C 205.21 35.79 211.59 38.03 220.00 37.00
M 212.00 28.00 
C 209.60 27.88 209.34 25.35 211.00 24.00
C 211.16 23.77 212.00 24.00 212.00 24.00
C 213.50 17.66 220.58 19.89 221.00 26.00 C 221.41 32.12 212.42 34.79 212.00 28.00 Z"/>
</g>
<g fill="#25CDED" fill-opacity="0.81" stroke="None">
<path d="
M 13.00 35.00 
C 12.13 36.51 13.10 32.08 13.00 33.00
C 13.38 30.48 12.56 28.24 12.00 26.00
C 19.67 27.67 32.23 21.81 29.77 13.23 C 27.31 4.65 13.32 2.93 7.75 7.75 C 2.19 12.58 8.27 30.21 6.00 37.00
C 8.67 36.52 12.46 38.36 13.00 35.00
M 12.00 20.00 
C 12.00 17.00 12.00 14.00 12.00 11.00
C 25.43 6.60 25.61 24.63 12.00 20.00 Z"/>
</g>
<g fill="#3F96E3" fill-opacity="0.81" stroke="None">
<path d="
M 151.00 7.00 
C 151.42 6.48 149.83 9.56 150.00 9.00
C 149.77 10.59 150.00 12.39 150.00 14.00
C 150.16 15.23 151.63 17.04 151.00 19.00
C 149.12 20.95 138.84 20.84 137.00 19.00
C 134.14 16.25 137.07 9.67 136.00 6.00
C 127.87 5.27 131.34 17.63 131.00 23.00 C 130.66 28.37 128.65 40.52 137.00 37.00
C 137.00 32.67 137.00 28.33 137.00 24.00
C 141.33 24.00 145.67 24.00 150.00 24.00
C 150.24 29.87 147.57 39.96 157.00 37.00
C 157.62 31.91 156.18 22.67 157.00 18.00 C 157.82 13.33 157.08 1.68 151.00 7.00 Z"/>
</g>
<g fill="#509ACC" fill-opacity="0.59" stroke="None">
<path d="
M 137.00 19.00 
C 136.96 19.00 137.00 18.00 137.00 18.00
C 137.00 15.43 138.24 7.39 136.00 6.00
C 137.07 9.67 134.14 16.25 137.00 19.00 Z"/>
</g>
<g fill="#4668D2" fill-opacity="0.48" stroke="None">
<path d="
M 220.00 37.00 
C 222.39 35.73 225.10 37.75 228.00 37.00
C 227.34 32.29 228.88 25.51 228.00 21.00 C 227.12 16.49 230.14 9.14 227.00 6.00
C 224.67 14.68 226.66 25.50 226.00 35.00
C 223.31 33.38 221.51 36.50 220.00 37.00 Z"/>
</g>
<g fill="#6F9594" fill-opacity="0.01" stroke="None">
<path d="
M 150.00 9.00 
C 149.83 9.56 151.42 6.48 151.00 7.00
C 150.00 7.88 150.21 7.57 150.00 9.00 Z"/>
</g>
<g fill="#34A8E4" fill-opacity="0.82" stroke="None">
<path d="
M 95.00 10.00 
C 98.38 13.48 93.21 16.38 92.00 19.00
C 92.27 20.47 94.00 19.89 95.00 20.00
C 95.48 24.65 93.61 31.73 96.75 35.25 C 99.90 38.76 107.07 38.47 106.00 33.00
C 98.62 32.94 101.50 25.22 101.00 20.00
C 104.85 20.97 107.10 18.89 106.00 15.00
C 101.36 16.33 100.16 12.93 101.00 9.00
C 98.81 9.05 96.55 8.57 95.00 10.00 Z"/>
</g>
<g fill="#4FB4DA" fill-opacity="0.56" stroke="None">
<path d="
M 92.00 19.00 
C 93.21 16.38 98.38 13.48 95.00 10.00
C 95.00 11.67 95.00 13.33 95.00 15.00
C 91.20 14.49 91.14 16.74 92.00 19.00 Z"/>
</g>
<g fill="#000000" fill-opacity="0.00" stroke="None">
<path d="
M 12.00 20.00 
C 25.61 24.63 25.43 6.60 12.00 11.00
C 12.00 14.00 12.00 17.00 12.00 20.00 Z"/>
</g>
<g fill="#3892CD" fill-opacity="0.04" stroke="None">
<path d="
M 150.00 18.00 
C 150.00 18.50 150.00 19.00 150.00 19.00
C 150.50 19.00 151.00 19.00 151.00 19.00
C 151.63 17.04 150.16 15.23 150.00 14.00
C 150.00 15.33 150.00 16.67 150.00 18.00 Z"/>
</g>
<g fill="#28C5EB" fill-opacity="0.79" stroke="None">
<path d="
M 46.00 20.00 
C 46.84 11.56 36.81 16.91 32.00 15.00
C 34.11 21.95 26.73 38.53 38.00 37.00
C 37.94 30.55 36.32 18.81 46.00 20.00 Z"/>
</g>
<g fill="#28BBE9" fill-opacity="0.82" stroke="None">
<path d="
M 53.00 29.00 
C 49.86 28.26 52.42 28.06 53.00 28.00
C 58.00 28.00 63.00 28.00 68.00 28.00
C 69.61 19.01 62.27 13.68 54.08 15.08 C 45.89 16.48 44.57 26.86 47.70 32.30 C 50.82 37.74 61.29 41.79 65.74 34.74 C 70.19 27.69 53.66 35.52 53.00 29.00
M 61.00 24.00 
C 58.18 24.16 51.41 24.78 54.26 21.25 C 57.11 17.73 60.68 21.20 61.00 24.00 Z"/>
</g>
<g fill="#2CB1E6" fill-opacity="0.83" stroke="None">
<path d="
M 91.00 28.00 
C 90.09 28.56 92.13 25.20 92.00 26.00
C 92.23 12.51 71.28 11.07 69.00 24.00 C 66.73 36.93 86.70 43.37 91.00 31.00
C 85.81 27.77 78.00 37.17 76.00 28.00
C 80.49 26.71 86.69 29.72 91.00 28.00
M 85.00 24.00 
C 82.00 24.00 79.00 24.00 76.00 24.00
C 75.86 18.66 85.14 18.65 85.00 24.00 Z"/>
</g>
<g fill="#3BA2E0" fill-opacity="0.77" stroke="None">
<path d="
M 115.00 15.00 
C 107.10 12.58 109.00 21.01 109.00 26.00 C 109.00 30.99 107.14 39.48 115.00 37.00
C 115.00 29.67 115.00 22.33 115.00 15.00 Z"/>
</g>
<g fill="#458BE2" fill-opacity="0.78" stroke="None">
<path d="
M 176.00 15.00 
C 160.44 10.28 153.00 30.89 166.93 37.07 C 180.86 43.26 189.58 19.12 176.00 15.00
M 173.00 20.00 
C 178.71 21.87 176.09 34.44 169.75 32.20 C 163.42 29.96 165.46 17.53 173.00 20.00 Z"/>
</g>
<g fill="#467BDE" fill-opacity="0.76" stroke="None">
<path d="
M 202.00 15.00 
C 194.10 12.58 196.00 21.01 196.00 26.00 C 196.00 30.99 194.14 39.48 202.00 37.00
C 202.00 29.67 202.00 22.33 202.00 15.00 Z"/>
</g>
<g fill="#4A65DD" fill-opacity="0.75" stroke="None">
<path d="
M 250.00 37.00 
C 249.32 30.87 252.19 20.39 246.74 16.26 C 241.29 12.12 231.42 15.39 231.00 22.00
C 236.08 25.67 240.93 15.30 244.00 23.00
C 238.43 22.59 226.09 26.48 230.75 34.25 C 235.42 42.01 243.71 34.35 250.00 37.00
M 244.00 28.00 
C 243.73 32.39 236.23 35.43 237.00 29.00
C 239.49 29.29 241.39 27.36 244.00 28.00 Z"/>
</g>
<g fill="#535FD7" fill-opacity="0.73" stroke="None">
<path d="
M 258.00 35.00 
C 259.03 36.76 259.41 35.26 259.00 37.00
C 257.06 39.40 256.50 43.10 255.00 46.00
C 263.31 47.88 263.79 38.13 266.69 32.69 C 269.60 27.25 271.14 20.54 274.00 15.00
C 265.53 12.49 264.80 22.34 263.00 28.00
C 258.11 24.40 260.06 12.44 251.00 15.00
C 252.61 21.84 255.33 28.54 258.00 35.00 Z"/>
</g>
<g fill="#5050D6" fill-opacity="0.69" stroke="None">
<path d="
M 281.00 22.00 
C 278.65 20.56 281.27 20.91 281.00 21.00
C 285.50 22.08 295.05 20.23 289.07 15.93 C 283.10 11.62 274.56 15.77 274.08 21.92 C 273.59 28.08 285.50 27.21 286.00 32.00
C 281.93 29.86 270.73 30.47 276.31 35.69 C 281.88 40.92 289.58 38.84 292.67 32.67 C 295.76 26.50 284.41 24.04 281.00 22.00 Z"/>
</g>
<g fill="#141429" fill-opacity="0.05" stroke="None">
<path d="
M 137.00 19.00 
C 141.25 19.38 145.73 19.00 150.00 19.00
C 150.00 19.00 150.00 18.50 150.00 18.00
C 145.90 17.63 141.10 17.63 137.00 18.00
C 137.00 18.00 136.96 19.00 137.00 19.00 Z"/>
</g>
<g fill="#4193D9" fill-opacity="0.40" stroke="None">
<path d="
M 151.00 19.00 
C 151.00 19.00 150.50 19.00 150.00 19.00
C 145.73 19.00 141.25 19.38 137.00 19.00
C 138.84 20.84 149.12 20.95 151.00 19.00 Z"/>
</g>
<g fill="#000102" fill-opacity="0.05" stroke="None">
<path d="
M 61.00 24.00 
C 60.68 21.20 57.11 17.73 54.26 21.25 C 51.41 24.78 58.18 24.16 61.00 24.00 Z"/>
</g>
<g fill="#000102" fill-opacity="0.05" stroke="None">
<path d="
M 85.00 24.00 
C 85.14 18.65 75.86 18.66 76.00 24.00
C 79.00 24.00 82.00 24.00 85.00 24.00 Z"/>
</g>
<g fill="#000000" fill-opacity="0.00" stroke="None">
<path d="
M 173.00 20.00 
C 165.46 17.53 163.42 29.96 169.75 32.20 C 176.09 34.44 178.71 21.87 173.00 20.00 Z"/>
</g>
<g fill="#000000" fill-opacity="0.00" stroke="None">
<path d="
M 212.00 24.00 
C 212.26 24.24 212.00 26.61 212.00 27.00
C 212.00 27.50 212.00 28.00 212.00 28.00
C 212.42 34.79 221.41 32.12 221.00 26.00 C 220.58 19.89 213.50 17.66 212.00 24.00 Z"/>
</g>
<g fill="#5A58D9" fill-opacity="0.40" stroke="None">
<path d="
M 281.00 22.00 
C 281.00 22.00 280.75 21.21 281.00 21.00
C 281.27 20.91 278.65 20.56 281.00 22.00 Z"/>
</g>
<g fill="#4B7ADE" fill-opacity="0.63" stroke="None">
<path d="
M 212.00 28.00 
C 212.00 28.00 212.00 27.50 212.00 27.00
C 211.50 26.46 210.30 25.04 211.00 24.00
C 209.34 25.35 209.60 27.88 212.00 28.00 Z"/>
</g>
<g fill="#427CBD" fill-opacity="0.02" stroke="None">
<path d="
M 212.00 27.00 
C 212.00 26.61 212.26 24.24 212.00 24.00
C 212.00 24.00 211.16 23.77 211.00 24.00
C 210.30 25.04 211.50 26.46 212.00 27.00 Z"/>
</g>
<g fill="#808080" fill-opacity="0.01" stroke="None">
<path d="
M 91.00 28.00 
C 92.06 27.58 91.98 27.05 92.00 26.00
C 92.13 25.20 90.09 28.56 91.00 28.00 Z"/>
</g>
<g fill="#2CC4EA" fill-opacity="0.61" stroke="None">
<path d="
M 53.00 29.00 
C 53.00 29.00 52.96 28.00 53.00 28.00
C 52.42 28.06 49.86 28.26 53.00 29.00 Z"/>
</g>
<g fill="#000000" fill-opacity="0.02" stroke="None">
<path d="
M 244.00 28.00 
C 241.39 27.36 239.49 29.29 237.00 29.00
C 236.23 35.43 243.73 32.39 244.00 28.00 Z"/>
</g>
<g fill="#00FFFF" fill-opacity="0.00" stroke="None">
<path d="
M 59.00 30.00 
C 55.02 29.19 57.09 32.49 59.00 30.00 Z"/>
</g>
<g fill="#8080FF" fill-opacity="0.01" stroke="None">
<path d="
M 13.00 35.00 
C 13.08 34.51 12.98 33.50 13.00 33.00
C 13.10 32.08 12.13 36.51 13.00 35.00 Z"/>
</g>
<g fill="#6776AF" fill-opacity="0.28" stroke="None">
<path d="
M 259.00 37.00 
C 259.41 35.26 259.03 36.76 258.00 35.00
C 258.17 35.41 259.01 36.59 259.00 37.00 Z"/>
</g>
</svg>